<svg xmlns="http://www.w3.org/2000/svg" viewBox="0 0 261.03 249.84"><defs><style>.cls-1{fill:#dcdcdc;}</style></defs><title>Gears-Grey</title><g id="trace"><path class="cls-1" d="M142.09,108.76,135,98.87l-12-2L120.24,82l-18.39-3L94.52,92.26l-12-2L72.61,97.4,60.14,88.77,45,99.66l4.23,14.58-9.89,7.11-2,12-14.93,2.71-3,18.42,13.29,7.32-2,12,7.12,9.9-8.65,12.47,10.9,15.16,14.59-4.23L61.8,217l12,2,2.7,14.92,18.41,3,7.32-13.3,12,2,9.89-7.11,12.49,8.63,15.14-10.89-4.23-14.57,9.89-7.11,2-12,14.93-2.71,3-18.41-13.3-7.32,2-12-7.11-9.88,8.65-12.48-10.91-15.15Zm-23.31,77.51a34.89,34.89,0,1,1,7.94-48.69,34.9,34.9,0,0,1-7.94,48.69"/><path class="cls-1" d="M215.63,31.74l-4.93-6.86-8.34-1.36-1.89-10.37-12.78-2.08-5.08,9.23-8.34-1.36-6.88,4.93-8.66-6L148.2,25.44l2.94,10.12-6.87,4.94-1.36,8.34-10.37,1.89-2.1,12.77,9.22,5.09-1.37,8.34,5,6.88-6,8.66L144.82,103l10.12-2.93,4.93,6.86,8.37,1.36,1.88,10.37,12.78,2.09,5.09-9.23,8.34,1.37,6.85-4.94,8.68,6,10.51-7.55-2.93-10.12,6.86-4.94L227.67,83,238,81.08l2.07-12.79-9.22-5.07,1.36-8.36L227.32,48l6-8.67-7.57-10.53Zm-16.2,53.83a24.23,24.23,0,1,1,5.52-33.82,24.22,24.22,0,0,1-5.52,33.82"/></g></svg>