<svg xmlns="http://www.w3.org/2000/svg" viewBox="0 0 70 50"><defs><style>.cls-1{fill:#ec2227;}</style></defs><title>Thumbs Down</title><g id="Layer_3" data-name="Layer 3"><path class="cls-1" d="M56.51,25a9,9,0,0,1,.41,2.67,7,7,0,0,1-.19,1.67,4.28,4.28,0,0,1-.56,1.34A3.43,3.43,0,0,1,55,31.84a3.29,3.29,0,0,1-1.66.42H47.42a33.83,33.83,0,0,1,2,4.08,19.85,19.85,0,0,1,1.05,3.54,10.1,10.1,0,0,1,.15,3,6.32,6.32,0,0,1-.75,2.41,4.76,4.76,0,0,1-2.19,2.08,6,6,0,0,1-2.41.59,1.09,1.09,0,0,1-.73-.27,1.11,1.11,0,0,1-.38-.69,8.75,8.75,0,0,0-.62-2.31,15.63,15.63,0,0,0-1.29-2.44,21.44,21.44,0,0,0-1.87-2.49,28.09,28.09,0,0,0-2.41-2.44,34.31,34.31,0,0,0-2.69-2.17q-1.41-1-2.92-1.92a33.42,33.42,0,0,0-3.08-1.61q-1.58-.72-3.18-1.27a3.47,3.47,0,0,1-1.23,1.39,3.22,3.22,0,0,1-1.82.54H16.27a3.37,3.37,0,0,1-3.38-3.38V8.67a3.37,3.37,0,0,1,3.38-3.35H23a3.28,3.28,0,0,1,1.91.59,3.31,3.31,0,0,1,1.23,1.53,22.06,22.06,0,0,0,4.87-1,26.87,26.87,0,0,0,2.78-1.25q.77-.42,1.57-.79a11.62,11.62,0,0,1,1.92-.67A18.86,18.86,0,0,1,40,3.23a36.6,36.6,0,0,1,3.91-.18,8.71,8.71,0,0,1,2.34.31,6.44,6.44,0,0,1,2,.9,5,5,0,0,1,1.37,1.32,4.32,4.32,0,0,1,.71,1.69,3.92,3.92,0,0,1,1.25.9,6,6,0,0,1,1.05,1.56,9.79,9.79,0,0,1,.7,2,8.41,8.41,0,0,1,.26,2c0,.12,0,.23,0,.33a2.78,2.78,0,0,1,0,.29,4.42,4.42,0,0,1,.81.8,6.92,6.92,0,0,1,.7,1.11,9.07,9.07,0,0,1,.71,2A9.22,9.22,0,0,1,56,20.29a6.08,6.08,0,0,1-.13,1.32,3.75,3.75,0,0,1-.39,1.05l0,.08,0,.08A5.89,5.89,0,0,1,56.51,25ZM16.27,7.55a1.1,1.1,0,0,0-.81.33,1.08,1.08,0,0,0-.33.79V28.88a1.08,1.08,0,0,0,.33.79,1.1,1.1,0,0,0,.81.33H23a1.12,1.12,0,0,0,1.12-1.12V8.67A1.12,1.12,0,0,0,23,7.55ZM53.57,24.18a.66.66,0,0,0-.34-.21,1.12,1.12,0,0,1,0-2.24l.13,0s.09-.07.13-.15a1.86,1.86,0,0,0,.18-.53,3.82,3.82,0,0,0,.07-.75,6.86,6.86,0,0,0-.2-1.58A6.59,6.59,0,0,0,53,17.19a3.15,3.15,0,0,0-.64-1A.88.88,0,0,0,51.9,16a1.12,1.12,0,0,1-1.12-1.12,1.06,1.06,0,0,1,.14-.55,1.17,1.17,0,0,1,.38-.39,6.72,6.72,0,0,0-.22-1.73A5.71,5.71,0,0,0,50.16,10a2.63,2.63,0,0,0-.48-.55.72.72,0,0,0-.44-.2A1.1,1.1,0,0,1,48.43,9a1.08,1.08,0,0,1-.33-.79A2.3,2.3,0,0,0,46.77,6a6.17,6.17,0,0,0-2.87-.69q-2.1,0-3.53.14a17,17,0,0,0-2.42.39,9.56,9.56,0,0,0-1.7.58q-.7.33-1.38.7t-1.38.7a15.87,15.87,0,0,1-1.7.69,21.14,21.14,0,0,1-2.29.64q-1.32.3-3.14.52V28a37.55,37.55,0,0,1,3.51,1.37,36.1,36.1,0,0,1,3.39,1.74q1.65,1,3.21,2.08a33.73,33.73,0,0,1,3,2.39,31,31,0,0,1,2.44,2.46,23.6,23.6,0,0,1,2,2.51,18.68,18.68,0,0,1,1.43,2.51,14,14,0,0,1,.89,2.46,3.65,3.65,0,0,0,.93-.48,3,3,0,0,0,.82-.9,5.31,5.31,0,0,0,.44-1.43,6.87,6.87,0,0,0-.09-2.4,18.91,18.91,0,0,0-1.12-3.61,37.9,37.9,0,0,0-2.59-5,1.19,1.19,0,0,1-.16-.57,1,1,0,0,1,.14-.57,1.14,1.14,0,0,1,.42-.42,1.12,1.12,0,0,1,.57-.15H53.3a1.19,1.19,0,0,0,.56-.12,1.07,1.07,0,0,0,.41-.41,2.46,2.46,0,0,0,.31-.78,4.63,4.63,0,0,0,.11-1,6.51,6.51,0,0,0-.16-1.45,6.16,6.16,0,0,0-.45-1.32A2.62,2.62,0,0,0,53.57,24.18Z"/></g></svg>