<svg id="Layer_1" data-name="Layer 1" xmlns="http://www.w3.org/2000/svg" viewBox="0 0 995.95 497.98"><defs><style>.cls-1{fill:#00aeef;}.cls-2{fill:#e91d2d;}.cls-3{fill:#117dc2;}</style></defs><title>Make-Intel</title><path class="cls-1" d="M522.93,273.4H9.93V10.4h513Zm-508-5h503V15.4h-503Z"/><path class="cls-2" d="M127,100.63h23.63l18.13,59.78H169l16.92-59.78h24.18V182H192.87V126.46h-.22a146.26,146.26,0,0,1-4.51,18.13L175.95,182H160.12L148,144.59a143.88,143.88,0,0,1-4.73-19h-.22V182H127Z"/><path class="cls-2" d="M214.73,167c0-13.52,11.43-21,37.14-23.08V142.5c0-4.28-2.2-7-7.91-7-7.47,0-13.85,3.08-19.23,7.26l-7.47-10.11c5.82-5.27,14.62-10.44,29.23-10.44,16,0,22.64,7.91,22.64,23v22.53c0,7,.44,11.32,1.65,14.29H253.19a28.12,28.12,0,0,1-1.32-8.57c-5.38,6-11.76,9.45-20.44,9.45C222.43,182.83,214.73,177,214.73,167Zm37.14-2.53V153.6c-14,1.43-19.89,4.95-19.89,10.33,0,3.74,2.64,5.61,6.48,5.61C244.62,169.53,248.91,167.45,251.87,164.48Z"/><path class="cls-2" d="M275.39,100.63h17.69v44.62l18.24-21.87h19l-19.12,21.87L331.43,182H313.19l-13-23.85-7.14,8V182H275.39Z"/><path class="cls-2" d="M326.81,152.72c0-22.75,17.36-30.55,29.45-30.55s26.92,6,26.92,32.63v2.64H344.39c.88,9.67,6.27,13.41,13.63,13.41a26.93,26.93,0,0,0,17.36-7l6.81,10.55c-6.81,5.82-15.27,8.79-25.49,8.79C341.42,183.16,326.81,175.36,326.81,152.72ZM367.36,147c-.88-8.24-4.62-12.19-11.21-12.19-5.49,0-10.22,3.62-11.54,12.19Z"/><path class="cls-2" d="M386.81,123.38h19v17h-19Zm0,41.54h19v17h-19Z"/><path class="cls-1" d="M985.93,487.4h-513v-263h513Zm-508-5h503v-253h-503Z"/><path class="cls-3" d="M731.64,419.52c-43.39,4-88.62-2.3-95-36.21-3.1-16.72,4.53-34.45,14.63-45.46V332c-18.2,16-28.06,36.16-22.38,60,7.26,30.6,46.06,47.93,105.32,42.17,23.45-2.27,54.12-9.81,75.46-21.53V396C790.34,407.51,758.32,417,731.64,419.52Zm114.31-88c-10.29-50.25-107.87-53.44-170.76-15.15v4.23c62.83-32.3,151.94-32.1,160.05,14.19,2.72,15.31-5.9,31.27-21.31,40.45v12C832.47,380.49,851.49,358.5,846,331.56Z"/><path class="cls-3" d="M806.2,324.24H794.82v50.67c0,5.94,2.87,11.1,11.38,11.93Z"/><path class="cls-3" d="M670.73,342.74h-11.4v33.11c0,6,2.88,11.12,11.4,11.93Z"/><rect class="cls-3" x="659.33" y="325.78" width="11.36" height="10.78"/><path class="cls-3" d="M738.87,387.25c-9.21,0-13.11-6.4-13.11-12.71v-44H737v12.15h8.49v9.11H737v22c0,2.57,1.22,4,3.9,4h4.59v9.4h-6.67"/><path class="cls-3" d="M759.62,368.53c0,5.77,3.61,10,10,10,5,0,7.47-1.39,10.36-4.24l7,6.64c-4.47,4.41-9.15,7.1-17.41,7.1-10.79,0-21.14-5.89-21.14-23.07,0-14.68,9-23,20.89-23,12,0,19,9.72,19,22.47v4.07H759.62m9.17-17.21A8.66,8.66,0,0,0,760.7,356a11.66,11.66,0,0,0-1.08,4.85H777C776.78,356,774.58,351.32,768.79,351.32Z"/><path class="cls-3" d="M701.36,351.85c3.31,0,4.68,1.63,4.68,4.29v31.18h11.28V356.08c0-6.33-3.37-13.32-13.28-13.32h-23.3v44.58H692V351.85Z"/><path class="cls-3" d="M818.44,333.3a4.53,4.53,0,1,1,4.54-4.53A4.51,4.51,0,0,1,818.44,333.3Zm0-8.3a3.76,3.76,0,1,0,3.78,3.77A3.8,3.8,0,0,0,818.44,325Zm2,6.49h-.85a.19.19,0,0,1-.17-.11l-1.14-1.94a.34.34,0,0,0-.16-.09h-.52v1.94a.2.2,0,0,1-.19.21h-.76a.21.21,0,0,1-.19-.21v-4.89c0-.29.1-.4.35-.44s1-.07,1.39-.07c1.41,0,2.24.42,2.24,1.72v.1a1.37,1.37,0,0,1-1,1.45l1.19,2a.36.36,0,0,1,0,.14A.16.16,0,0,1,820.45,331.48Zm-1.1-3.88c0-.55-.34-.72-1.07-.72h-.72v1.55l.72,0c.73,0,1.07-.24,1.07-.76Z"/><rect class="cls-1" x="749.43" y="-135.13" width="5" height="510.06" transform="translate(327.62 752.14) rotate(-65.19)"/><rect class="cls-1" x="241.43" y="122.87" width="5" height="510.06" transform="translate(-201.44 440.77) rotate(-65.19)"/></svg>