<svg width="30" height="37" viewBox="0 0 30 37" version="1.1" xmlns="http://www.w3.org/2000/svg" xmlns:xlink="http://www.w3.org/1999/xlink" xmlns:figma="http://www.figma.com/figma/ns">
<title>icon-role-model</title>
<desc>Created using Figma</desc>
<g id="Canvas" transform="translate(-579 -427)" figma:type="canvas">
<g id="icon-role-model" style="mix-blend-mode:normal;" figma:type="symbol">
<g id="icon-role-model" style="mix-blend-mode:normal;" figma:type="vector">
<use xlink:href="#path0_fill" transform="translate(579 427.204)" fill="#4F4F4F" style="mix-blend-mode:normal;"/>
</g>
</g>
</g>
<defs>
<path id="path0_fill" fill-rule="evenodd" d="M 0 0L 30 0L 30 27.6832L 15 36.061L 0 27.6832L 0 0ZM 20.8601 19.7391C 21.0939 19.86 21.6785 20.3439 21.9123 21.0696C 22.0292 21.5534 22.0292 21.7954 21.9123 22.0373L 21.0939 22.0373L 8.81836 22.0373L 8 22.0373C 8 21.7954 8 21.4325 8.11688 21.0696C 8.35071 20.2229 8.9353 19.86 9.16907 19.7391C 9.75366 19.3762 10.309 19.0435 10.8643 18.7109C 11.4196 18.3783 11.975 18.0456 12.5595 17.6827C 12.5949 17.6461 12.6411 17.6095 12.6914 17.5695C 12.8073 17.4774 12.9456 17.3676 13.0272 17.1989C 13.144 17.0779 13.3779 16.7151 13.144 15.8684C 12.9995 15.345 12.8104 15.099 12.5489 14.7589C 12.3873 14.5487 12.1982 14.3026 11.9749 13.933C 11.3904 12.9653 11.1566 11.9977 11.1566 11.5138C 11.1566 11.4039 11.1458 11.283 11.1342 11.1509C 11.1072 10.8469 11.0751 10.484 11.1566 10.0623L 11.1703 9.97603C 11.2928 9.20146 11.5644 7.48582 13.0272 6.55449C 14.1962 5.82873 15.7161 5.82873 16.8852 6.55449C 18.4649 7.48845 18.7377 9.21115 18.8599 9.98257L 18.8726 10.0623C 18.9542 10.484 18.922 10.8469 18.895 11.1509C 18.8834 11.283 18.8726 11.4039 18.8726 11.5138C 18.8521 11.5987 18.8316 11.6984 18.8086 11.8103C 18.7004 12.337 18.5364 13.135 18.0543 13.933C 17.831 14.3026 17.6418 14.5487 17.4803 14.7589C 17.2189 15.099 17.0297 15.3451 16.8852 15.8684C 16.7011 16.4397 16.8069 16.8612 16.8602 17.0736C 16.8746 17.131 16.8852 17.1732 16.8852 17.1989C 17.0222 17.3406 17.1592 17.4409 17.2726 17.5239C 17.3528 17.5826 17.4213 17.6327 17.4697 17.6827C 18.0541 18.0455 18.6092 18.378 19.1644 18.7105C 19.7198 19.0433 20.2754 19.376 20.8601 19.7391Z"/>
</defs>
</svg>
