<svg id="MakerShare-Logo-Color" xmlns="http://www.w3.org/2000/svg" viewBox="0 0 233 61"><defs><style>.cls-1{fill:#ea002a;}.cls-2{fill:#117dc2;}.cls-3{fill:#828282;}</style></defs><title>Make Intel Color Lockup</title><path class="cls-1" d="M7.5,12.35h8.08l6.2,20.45h.08l5.79-20.45h8.27V40.17H30v-19h-.08a50,50,0,0,1-1.54,6.2L24.23,40.17H18.82L14.68,27.39a49.23,49.23,0,0,1-1.62-6.5H13V40.17H7.5Z"/><path class="cls-1" d="M37.5,35.06c0-4.62,3.91-7.18,12.71-7.9v-.49c0-1.47-.75-2.41-2.71-2.41a10.67,10.67,0,0,0-6.58,2.48l-2.56-3.46a14.06,14.06,0,0,1,10-3.57c5.49,0,7.75,2.71,7.75,7.86v7.71a13.7,13.7,0,0,0,.56,4.89h-6a9.62,9.62,0,0,1-.45-2.93,8.85,8.85,0,0,1-7,3.23C40.13,40.47,37.5,38.48,37.5,35.06Zm12.71-.86V30.47c-4.77.49-6.8,1.69-6.8,3.53,0,1.28.9,1.92,2.22,1.92A6.2,6.2,0,0,0,50.21,34.19Z"/><path class="cls-1" d="M58.25,12.35h6.05V27.61l6.24-7.48h6.51l-6.54,7.48,6.92,12.56H71.19L66.75,32l-2.44,2.74v5.42H58.25Z"/><path class="cls-1" d="M75.85,30.17c0-7.78,5.94-10.45,10.08-10.45s9.21,2.07,9.21,11.17v.9H81.86c.3,3.31,2.14,4.59,4.66,4.59A9.21,9.21,0,0,0,92.46,34l2.33,3.61a13,13,0,0,1-8.72,3C80.85,40.58,75.85,37.91,75.85,30.17Zm13.87-2c-.3-2.82-1.58-4.17-3.83-4.17-1.88,0-3.5,1.24-3.95,4.17Z"/><path class="cls-1" d="M96.37,20.13h6.5V26h-6.5Zm0,14.21h6.5v5.83h-6.5Z"/><path class="cls-2" d="M183.09,52.14c-16.17,1.49-33-.86-35.38-13.49-1.15-6.23,1.69-12.84,5.45-16.94V19.51c-6.78,5.95-10.46,13.47-8.34,22.36,2.7,11.4,17.16,17.86,39.24,15.72,8.74-.85,20.17-3.66,28.12-8v-6.2C205,47.67,193,51.22,183.09,52.14Zm42.6-32.78C221.85.64,185.5-.55,162.06,13.72v1.58c23.41-12,56.62-12,59.64,5.29,1,5.71-2.2,11.65-7.94,15.07v4.48C220.67,37.6,227.75,29.4,225.69,19.37Z"/><path class="cls-2" d="M210.88,16.64h-4.24V35.52c0,2.21,1.07,4.14,4.24,4.44Z"/><path class="cls-2" d="M160.4,23.53h-4.25V35.87c0,2.22,1.07,4.14,4.25,4.44Z"/><rect class="cls-2" x="156.15" y="17.21" width="4.23" height="4.02"/><path class="cls-2" d="M185.79,40.12a4.53,4.53,0,0,1-4.88-4.73V19h4.2v4.53h3.17v3.39H185.1v8.2a1.3,1.3,0,0,0,1.45,1.49h1.71v3.5h-2.48"/><path class="cls-2" d="M193.52,33.14a3.49,3.49,0,0,0,3.72,3.73,4.75,4.75,0,0,0,3.86-1.58l2.6,2.47a8.3,8.3,0,0,1-6.49,2.64c-4,0-7.88-2.2-7.88-8.59,0-5.47,3.37-8.56,7.78-8.56s7.07,3.62,7.07,8.37v1.52H193.52m3.42-6.41a3.23,3.23,0,0,0-3,1.74,4.35,4.35,0,0,0-.4,1.81H200C199.91,28.47,199.09,26.73,196.93,26.73Z"/><path class="cls-2" d="M171.81,26.93c1.23,0,1.74.61,1.74,1.6V40.14h4.2V28.5c0-2.36-1.26-5-4.95-5h-8.68V40.14h4.21V26.93Z"/><path class="cls-2" d="M215.44,20a1.69,1.69,0,1,1,1.69-1.69A1.68,1.68,0,0,1,215.44,20Zm0-3.09a1.4,1.4,0,1,0,1.41,1.41A1.42,1.42,0,0,0,215.44,16.92Zm.75,2.42h-.32a.07.07,0,0,1-.06,0l-.43-.72-.06,0h-.2v.72a.07.07,0,0,1-.07.08h-.28a.08.08,0,0,1-.07-.08V17.44c0-.11,0-.15.13-.16l.52,0c.53,0,.83.15.83.64v0a.51.51,0,0,1-.38.54l.44.76a.13.13,0,0,1,0,.05A.06.06,0,0,1,216.19,19.34Zm-.41-1.45c0-.2-.13-.27-.4-.27h-.27v.58h.27c.27,0,.4-.09.4-.28Z"/><path class="cls-3" d="M123.52,41.37a.67.67,0,0,1-.2-.49V17.19a.69.69,0,0,1,1.39,0V40.88a.69.69,0,0,1-1.18.49Z"/></svg>