<svg id="Layer_1" data-name="Layer 1" xmlns="http://www.w3.org/2000/svg" xmlns:xlink="http://www.w3.org/1999/xlink" viewBox="0 0 63.75 64"><defs><style>.cls-1{fill:#fff;}.cls-2{mask:url(#mask);}.cls-3{fill:#bdbdbd;}</style><mask id="mask" x="-0.13" y="0" width="64" height="64" maskUnits="userSpaceOnUse"><g id="mask3_outline_ins" data-name="mask3 outline ins"><path id="path66_fill" data-name="path66 fill" class="cls-1" d="M1.88,2h60V62h-60Z"/></g></mask></defs><title>Edit</title><g id="icon-video-pause"><g id="icon-video"><g id="Rectangle_6" data-name="Rectangle 6"><g class="cls-2"><path id="path67_stroke_2x" data-name="path67 stroke 2x" class="cls-3" d="M1.88,2V0h-2V2Zm60,0h2V0h-2Zm0,60v2h2V62Zm-60,0h-2v2h2Zm0-58h60V0h-60Zm58-2V62h4V2Zm2,58h-60v4h60Zm-58,2V2h-4V62Z"/></g></g></g></g><path class="cls-3" d="M45,50.67l-6.35-3.54a1.24,1.24,0,0,1-.51-.42l-21-24.45a1.43,1.43,0,0,1-.41-.78,1.64,1.64,0,0,1,.57-1.57l3.18-2.75a1.44,1.44,0,0,1,.78-.41A1.78,1.78,0,0,1,23,17.3l21,24.45a1.79,1.79,0,0,1,.36.53l2.58,6.83a1.31,1.31,0,0,1-1,1.73A1.51,1.51,0,0,1,45,50.67ZM24.37,21.6l-3.18,2.75,1.1,1.26,3.18-2.75ZM42.66,42.85,26.58,24.19,23.4,26.95,39.48,45.6l3.18,1.81L44,46.3Z"/></svg>