<?xml version="1.0" encoding="utf-8"?>
<!-- Generator: Adobe Illustrator 21.1.0, SVG Export Plug-In . SVG Version: 6.00 Build 0)  -->
<svg version="1.1" id="Layer_1" xmlns="http://www.w3.org/2000/svg" xmlns:xlink="http://www.w3.org/1999/xlink" x="0px" y="0px"
	 viewBox="0 0 16 16" style="enable-background:new 0 0 16 16;" xml:space="preserve">
<style type="text/css">
	.st0{fill:#FFFFFF;}
</style>
<path class="st0" d="M12.3,6.9c0.2,0,0.3,0.1,0.3,0.3v1.4C12.6,8.9,12.8,9,13,9h2.8c0.2,0,0.2,0.3,0,0.3L10.2,11
	c-0.2,0-0.3,0-0.4-0.2c0,0,0-0.1,0-0.1V9.2c0-0.1-0.1-0.1-0.1-0.1H3.4C3.3,9.1,3.2,9,3.2,8.9V7.3C3.2,7,3,6.8,2.8,6.8l-2.7,0
	c-0.2,0-0.2-0.2,0-0.3l5.8-1.7c0.1,0,0.1,0,0.2,0.1c0,0,0,0,0,0v1.6c0,0.2,0.1,0.3,0.3,0.3H12.3z M5.9,3c0.2,0,0.2,0.2,0.2,0.2
	s0,0.6,0,0.9c0,0.3-0.3,0.2-0.3,0.2H3.5c0,0-0.2-0.1-0.2-0.3c0-0.3,0.3-0.4,0.3-0.4S5.7,3.1,5.9,3L5.9,3z M9.8,2.3
	c0,0,0-0.3,0.3-0.4c0.3-0.1,2.2-0.6,2.2-0.6s0.3-0.1,0.4,0.3c0,0.4,0,4.1,0,4.1s0,0.3-0.3,0.3c-0.3,0-2.2,0-2.2,0S9.8,6,9.8,5.7
	L9.8,2.3L9.8,2.3z M9.8,11.8c0-0.3,0.3-0.2,0.2-0.3h2.3c0,0,0.2,0.1,0.2,0.3c0,0.3-0.3,0.4-0.3,0.4s-2.1,0.6-2.3,0.6
	c-0.2,0-0.2-0.2-0.2-0.2S9.8,12.1,9.8,11.8z M6.2,13.7c0,0,0,0.3-0.3,0.4c-0.3,0.1-2.2,0.6-2.2,0.6s-0.3,0.1-0.4-0.3
	c0-0.4,0-4.1,0-4.1s0-0.3,0.3-0.3c0.3,0,2.2,0,2.2,0s0.4,0,0.4,0.3c0,0.3,0,0.5,0,0.5V13.7L6.2,13.7z"/>
</svg>
