<?xml version="1.0" encoding="utf-8"?>
<!-- Generator: Adobe Illustrator 21.1.0, SVG Export Plug-In . SVG Version: 6.00 Build 0)  -->
<svg version="1.1"
	 id="svg2501" xmlns:inkscape="http://www.inkscape.org/namespaces/inkscape" xmlns:svg="http://www.w3.org/2000/svg"
	 xmlns="http://www.w3.org/2000/svg" xmlns:xlink="http://www.w3.org/1999/xlink" x="0px" y="0px" viewBox="0 0 16 16"
	 style="enable-background:new 0 0 16 16;" xml:space="preserve">
<g>
	<g id="layer2">
		<path id="path3311" d="M2.1,0.8c-0.2,0-0.4,0-0.5,0.1L2.8,2L1.4,3.6L0.1,2.4c0,0.1,0,0.3,0,0.4c0,1.1,0.9,2,2,2
			c0.2,0,0.4,0,0.6-0.1l1.6,1.4c0.3-0.7,0.8-1.2,1.3-1.7L4.1,3.1c0-0.1,0-0.2,0-0.3v0C4.1,1.7,3.2,0.8,2.1,0.8z M11.8,9.9
			c-0.3,0.7-0.7,1.3-1.2,1.8l1.3,1.2c0,0.1,0,0.2,0,0.3c0,1.1,0.9,2,2,2c0.2,0,0.4,0,0.6-0.1l-1.3-1.2l1.4-1.6l1.3,1.2
			c0-0.1,0-0.2,0-0.4v0c0-1.1-0.9-2-2-2c-0.2,0-0.4,0-0.6,0.1L11.8,9.9z"/>
		<path id="path3335" d="M13.9,0.8c-1.1,0-2,0.9-2,2v0c0,0.1,0,0.2,0,0.3l-1.6,1.4c0.6,0.4,1,1,1.3,1.7l1.6-1.4
			c0.2,0.1,0.4,0.1,0.6,0.1c1.1,0,2-0.9,2-2c0-0.1,0-0.3,0-0.4l-1.3,1.1L13.2,2l1.3-1.1C14.2,0.8,14.1,0.8,13.9,0.8z M4.2,9.9
			l-1.5,1.3c-0.2-0.1-0.4-0.1-0.6-0.1c-1.1,0-2,0.9-2,2v0c0,0.1,0,0.2,0,0.4l1.3-1.2l1.4,1.6l-1.3,1.2c0.2,0.1,0.4,0.1,0.6,0.1
			c1.1,0,2-0.9,2-2c0-0.1,0-0.2,0-0.3l1.3-1.2C4.9,11.2,4.5,10.6,4.2,9.9z"/>
	</g>
	<g id="layer12">
		<path id="path3383" d="M8,4.1c-2.1,0-3.8,1.9-3.8,4.2c0,1.4,0.6,2.7,1.6,3.4c-0.1,0.1-0.1,0.2-0.1,0.4c0,0.4,0.3,0.7,0.7,0.7
			c0.4,0,0.7-0.3,0.7-0.7c0,0,0-0.1,0-0.1h0.1c0,0,0,0.1,0,0.1c0,0.4,0.3,0.7,0.7,0.7c0.4,0,0.7-0.3,0.7-0.7c0,0,0-0.1,0-0.1h0.1
			c0,0,0,0.1,0,0.1c0,0.4,0.3,0.7,0.7,0.7s0.7-0.3,0.7-0.7c0-0.1,0-0.3-0.1-0.4c1-0.7,1.7-2,1.7-3.4C11.8,5.9,10.1,4.1,8,4.1z
			 M6.4,7.2c0.2,0,0.4,0.1,0.6,0.2c0.2,0.1,0.3,0.3,0.4,0.4c0.1,0.2,0,0.4-0.2,0.6C7,8.4,6.9,8.5,6.8,8.6C6.6,8.6,6.4,8.7,6.2,8.8
			C6.1,8.9,6.1,8.9,6,9C6,9.1,6,9.2,6,9.3c-0.1,0.1-0.2,0-0.3-0.1C5.5,9.1,5.4,9,5.3,8.8c0-0.2-0.1-0.4,0-0.5c0-0.2,0.1-0.4,0.2-0.6
			c0.2-0.2,0.4-0.4,0.6-0.4C6.2,7.2,6.3,7.2,6.4,7.2z M9.6,7.2c0.1,0,0.1,0,0.2,0c0.3,0,0.5,0.2,0.6,0.4c0.1,0.2,0.2,0.4,0.2,0.6
			c0,0.2,0,0.4,0,0.5c0,0.2-0.2,0.4-0.4,0.5c-0.1,0.1-0.2,0.1-0.3,0.1C9.9,9.2,10,9.1,9.9,9c0-0.1-0.1-0.2-0.2-0.2
			C9.6,8.7,9.4,8.6,9.2,8.6C9.1,8.5,9,8.4,8.8,8.3C8.7,8.2,8.6,8,8.6,7.8C8.7,7.6,8.8,7.4,9,7.3C9.2,7.2,9.4,7.2,9.6,7.2z M8,9.3
			c0.2,0,0.4,0.8,0.3,1.2C8.2,11,8.2,10.1,8,10.1c-0.2,0-0.3,0.8-0.4,0.3C7.6,10.1,7.8,9.3,8,9.3z"/>
	</g>
</g>
</svg>
