<?xml version="1.0" encoding="utf-8"?>
<!-- Generator: Adobe Illustrator 21.1.0, SVG Export Plug-In . SVG Version: 6.00 Build 0)  -->
<svg version="1.1" id="Layer_1" xmlns="http://www.w3.org/2000/svg" xmlns:xlink="http://www.w3.org/1999/xlink" x="0px" y="0px"
	 viewBox="0 0 16 16" style="enable-background:new 0 0 16 16;" xml:space="preserve">
<style type="text/css">
	.st0{fill:#FFFFFF;}
</style>
<g id="Robot_1_">
	<path class="st0" d="M3,15.1C2.6,15,2.7,15.3,3,15.1L3,15.1z"/>
	<path class="st0" d="M12.8,6.2c-0.1-0.1-0.2-0.1-0.3-0.2c-0.1-0.3,0-0.5-0.1-0.7c-0.2-0.6-0.9-0.9-1-1.4c0-0.1-0.1-0.2-0.1-0.4
		l0-0.8c0,0,0-0.1,0-0.1c0-0.1,0.1-0.3,0.2-0.4c0.4,0,0.9-0.1,1.4-0.1c0.3,0,0.8,0.2,0.9-0.1c-0.6,0.1-1.5,0-2.3,0.1
		c-0.2-0.6-0.3-0.5-0.4-0.6c-0.3-0.6-0.5-1.2-1.1-1.3C9.7,0,9.1,0.1,8.7,0.2C8.1,0.2,7.5,0.4,6.9,0.5c0,0.3,0,0.7-0.1,0.9
		C6.7,1.3,6.5,1.8,6.4,2.1c-0.3-0.2-0.6,0-1,0c-0.3,0-0.8-0.1-0.9,0.1c0.5,0.1,1.4-0.2,1.9,0c0,0.4,0.2,0.6,0.4,0.8
		c0,0.3,0,0.6,0,0.8C6.5,3.8,6.3,3.9,6.1,4c0,0,0,0,0,0c-0.9,0.4-1.5,1.3-2,2.1C3.3,6.4,2.8,7.1,2.4,7.8C2.2,8.2,1.9,8.5,1.9,9.1
		c0.1,0.1,0.2-0.2,0.3,0c0,0.1,0,0.2,0.1,0.2c0.2-0.1,0.5,0,0.7,0.1c-0.1,0.5-0.2,1-0.2,1.5c0.3,0.2,1,0.2,1.4,0.4
		c0.1,0.7-0.1,1.8,0.3,2.1c-0.6,0.3-0.6,1.3,0,1.6c-0.4,0.3-1.3,0-1.4,0.4c0.7-0.1,2.5-0.3,2.8,0c-0.1-0.3,0.5,0,0.5-0.2
		c-0.2,0-0.4,0-0.4-0.1c0.6-0.3,0.3-1.3-0.1-1.6c0.1,0,0.3,0,0.4-0.1c-0.1-0.8,0-1.2-0.2-1.8c0.6,0.1,1.3,0.2,1.8,0.3
		c-0.1,0.8-0.1,1.1-0.1,2C7.9,13.8,8,13.9,8.1,14c-0.3,0.2-0.6,0.5-0.5,1.1c-0.2-0.1-0.8-0.1-1,0c0.3,0,0.7,0.2,0.8,0
		c0.5,0.4,1,1,1.9,0.8c0.3-0.1,0.5-0.4,0.8-0.4c0,0.2,0.4,0.1,0.2,0c0.3,0,0.9-0.1,1.1,0c0-0.1,0-0.1,0-0.1c0.5-0.1,1.1,0,1.4-0.2
		c-1.2-0.1-1.9,0.1-3,0.1c-0.1,0,0,0.2-0.1,0.1c0-0.6-0.1-0.9-0.4-1.3c0.7,0,0.2-1.1,0.5-1.5c-0.2-0.3,0-0.8,0-1l0.1,0
		c1,0,1.8,0,2.5-0.3c0-0.7,0.1-1.2,0-1.8c0.1,0,0.1-0.1,0.2-0.1c0.1,0,0,0.2,0.2,0.1c0.2-0.2,0.7,0,1.1-0.2
		C13.9,8.3,13.5,7,12.8,6.2z"/>
</g>
</svg>
