<svg id="Layer_1" data-name="Layer 1" xmlns="http://www.w3.org/2000/svg" viewBox="0 0 8.29 13.67"><defs><style>.cls-1{fill:#bdbdbd;}.cls-2{fill:#fff;}</style></defs><title>Light-Not Selected</title><path class="cls-1" d="M4.14.76a3.38,3.38,0,0,0-3.4,3.4,3.35,3.35,0,0,0,1,2.46A2,2,0,0,1,2.37,8V9A.59.59,0,0,0,3,9.63H5.33A.59.59,0,0,0,5.92,9V8a2,2,0,0,1,.59-1.39,3.35,3.35,0,0,0,1-2.46A3.38,3.38,0,0,0,4.14.76Z"/><path class="cls-1" d="M6.92,7a1.41,1.41,0,0,0-.41,1V9a1.19,1.19,0,0,1-.59,1V12a.59.59,0,0,1-.59.59.87.87,0,0,1-.89.89H3.85A.87.87,0,0,1,3,12.59.59.59,0,0,1,2.37,12V10.08a1.19,1.19,0,0,1-.59-1V8a1.41,1.41,0,0,0-.41-1A4,4,0,0,1,.15,4.16a4,4,0,1,1,8,0A4,4,0,0,1,6.92,7ZM4.14.76a3.38,3.38,0,0,0-3.4,3.4,3.35,3.35,0,0,0,1,2.46A2,2,0,0,1,2.37,8V9A.59.59,0,0,0,3,9.63H5.33A.59.59,0,0,0,5.92,9V8a2,2,0,0,1,.59-1.39,3.35,3.35,0,0,0,1-2.46A3.38,3.38,0,0,0,4.14.76Zm1.18,9.47H3v.59H5.33Zm0,1.18H3V12H5.33Z"/><rect class="cls-2" x="2.96" y="10.23" width="2.37" height="0.59"/><rect class="cls-2" x="2.96" y="11.41" width="2.37" height="0.59"/></svg>