<svg id="MakerShare-Logo-Color" xmlns="http://www.w3.org/2000/svg" viewBox="0 0 397 97"><defs><style>.cls-1{fill:#fff;}.cls-2{fill:#00aeef;}.cls-3{fill:#ed1c24;}.cls-4{font-size:26px;font-family:MessinaModern-Regular, Messina Modern;}.cls-19,.cls-4{fill:#828282;}.cls-5{letter-spacing:-0.02em;}.cls-6{letter-spacing:-0.03em;}.cls-7{letter-spacing:-0.04em;}.cls-8{letter-spacing:-0.01em;}.cls-9{letter-spacing:-0.01em;}.cls-10{letter-spacing:0em;}.cls-11{letter-spacing:-0.03em;}.cls-12{letter-spacing:-0.03em;}.cls-13{letter-spacing:-0.02em;}.cls-14{letter-spacing:0em;}.cls-15{letter-spacing:-0.01em;}.cls-16{letter-spacing:0em;}.cls-17{letter-spacing:-0.01em;}.cls-18{letter-spacing:-0.02em;}</style></defs><title>Make-Intel-Present</title><rect class="cls-1" x="299.37" y="55.95" width="85.88" height="32.45"/><rect class="cls-1" x="272.49" y="9.6" width="89.86" height="32.45"/><path class="cls-2" d="M365,6.33H269.22v37.8L296.8,91.67h91.72V53.93ZM296.1,52.68V84L273.69,45.32h91.92V15l18.64,37.71ZM362.35,9.6V42.05H272.49V9.6Zm-63,78.79V55.95h85.88V88.4Z"/><path class="cls-3" d="M277.89,15.54h6l4.57,15.07h.06l4.27-15.07h6.09V36h-4.35v-14h-.06a36.71,36.71,0,0,1-1.14,4.57L290.22,36h-4l-3-9.42A36.38,36.38,0,0,1,282,21.83h-.06V36h-4Z"/><path class="cls-3" d="M300.91,32.27c0-3.41,2.88-5.29,9.36-5.82V26.1c0-1.08-.55-1.77-2-1.77a7.86,7.86,0,0,0-4.85,1.83l-1.88-2.55A10.36,10.36,0,0,1,308.91,21c4,0,5.71,2,5.71,5.79v5.68A10.08,10.08,0,0,0,315,36H310.6a7.08,7.08,0,0,1-.33-2.16,6.53,6.53,0,0,1-5.15,2.38A3.94,3.94,0,0,1,300.91,32.27Zm9.36-.64V28.89c-3.52.36-5,1.25-5,2.6,0,.94.66,1.41,1.63,1.41A4.57,4.57,0,0,0,310.27,31.64Z"/><path class="cls-3" d="M317.09,15.54h4.46V26.79l4.6-5.51h4.79l-4.82,5.51,5.1,9.25h-4.6l-3.27-6-1.8,2v4h-4.46Z"/><path class="cls-3" d="M331,28.67a7.25,7.25,0,0,1,7.42-7.7c3,0,6.79,1.52,6.79,8.23v.66h-9.78c.22,2.44,1.58,3.38,3.44,3.38a6.78,6.78,0,0,0,4.38-1.77L345,34.13a9.54,9.54,0,0,1-6.43,2.22C334.67,36.35,331,34.38,331,28.67Zm10.22-1.44c-.22-2.08-1.16-3.08-2.83-3.08-1.39,0-2.58.91-2.91,3.08Z"/><path class="cls-3" d="M347.06,21.28h4.46v2.47h0a5.59,5.59,0,0,1,5-2.77h.14l-.06,4c-.17,0-.89-.08-1.16-.08a4.93,4.93,0,0,0-3.93,2V36h-4.46Z"/><path class="cls-3" d="M304.29,77.68l3.45-2a6.16,6.16,0,0,0,5.61,3.53c2.1,0,3.62-.78,3.62-2.38s-1.49-2.24-4.21-3c-3.7-1-7.57-2-7.57-6.34,0-3.87,3-6.2,7.49-6.2a9.32,9.32,0,0,1,8.24,4.26l-3.17,2.41a6.18,6.18,0,0,0-5.1-2.94c-1.93,0-3,.84-3,2.07,0,1.65,1.54,2.24,4.26,3,3.64,1,7.51,2.13,7.51,6.42,0,3.34-2.52,6.31-8.3,6.31C308.64,82.79,305.83,80.66,304.29,77.68Z"/><path class="cls-3" d="M323.44,61.65H328v8.16a6.39,6.39,0,0,1,5.16-2.66c2.55,0,4.37,1.26,4.37,4.35V82.39H333V72.92c0-1.35-.5-2-1.74-2A5,5,0,0,0,328,72.36v10h-4.51Z"/><path class="cls-3" d="M339.08,78.58c0-3.45,2.92-5.35,9.48-5.89v-.36c0-1.09-.56-1.79-2-1.79a8,8,0,0,0-4.91,1.85l-1.91-2.58a10.48,10.48,0,0,1,7.46-2.66c4.09,0,5.77,2,5.77,5.86v5.75a10.2,10.2,0,0,0,.42,3.64h-4.49a7.17,7.17,0,0,1-.34-2.19,6.6,6.6,0,0,1-5.21,2.41A4,4,0,0,1,339.08,78.58Zm9.48-.64V75.16c-3.56.36-5.07,1.26-5.07,2.64,0,1,.67,1.43,1.65,1.43A4.62,4.62,0,0,0,348.55,77.94Z"/><path class="cls-3" d="M355.46,67.45H360v2.5h0a5.66,5.66,0,0,1,5-2.8h.14l-.06,4c-.17,0-.9-.08-1.18-.08a5,5,0,0,0-4,2v9.28h-4.51Z"/><path class="cls-3" d="M365.64,74.94a7.34,7.34,0,0,1,7.51-7.79c3.08,0,6.87,1.54,6.87,8.33v.67h-9.9c.22,2.47,1.6,3.42,3.48,3.42A6.86,6.86,0,0,0,378,77.77l1.74,2.69a9.65,9.65,0,0,1-6.5,2.24C369.36,82.7,365.64,80.71,365.64,74.94ZM376,73.48c-.22-2.1-1.18-3.11-2.86-3.11-1.4,0-2.61.93-2.94,3.11Z"/><text class="cls-4" transform="translate(6 59.5)"><tspan class="cls-5">M</tspan><tspan class="cls-6" x="25.54" y="0">a</tspan><tspan class="cls-7" x="38.92" y="0">k</tspan><tspan class="cls-8" x="53.34" y="0">e</tspan><tspan class="cls-9" x="66.79" y="0">:</tspan><tspan x="72.53" y="0" xml:space="preserve">     </tspan><tspan class="cls-10" x="103.73" y="0">I</tspan><tspan class="cls-11" x="113.35" y="0">n</tspan><tspan class="cls-12" x="129.43" y="0">t</tspan><tspan class="cls-13" x="138.36" y="0">e</tspan><tspan x="151.53" y="0">l </tspan><tspan class="cls-14" x="166.02" y="0">P</tspan><tspan class="cls-15" x="183.14" y="0">r</tspan><tspan class="cls-16" x="193.86" y="0">e</tspan><tspan class="cls-17" x="207.59" y="0">s</tspan><tspan class="cls-18" x="220.15" y="0">e</tspan><tspan class="cls-11" x="233.34" y="0">n</tspan><tspan x="249.42" y="0">t</tspan></text><path class="cls-19" d="M93.73,61.37a.67.67,0,0,1-.2-.49V37.19a.69.69,0,0,1,1.39,0V60.88a.69.69,0,0,1-1.18.49Z"/></svg>