<svg id="Layer_1" data-name="Layer 1" xmlns="http://www.w3.org/2000/svg" viewBox="0 0 50 50"><defs><style>.cls-1{fill:#4f4f4f;}</style></defs><title>Seaerch</title><g id="search"><g id="Group"><g id="Group-2" data-name="Group"><g id="Group-3" data-name="Group"><g id="Vector"><path id="path281_stroke" data-name="path281 stroke" class="cls-1" d="M28.15,28.88a.75.75,0,1,0-1.06,1.06ZM38.09,39.8l-.53.53h0Zm1.86,0-.53-.53h0Zm.93-.92.53.53h0Zm0-1.85-.53.53ZM30.94,26.11a.75.75,0,1,0-1.06,1.06ZM27.1,29.94,37.56,40.33l1.06-1.06L28.15,28.88ZM37.56,40.33a2.17,2.17,0,0,0,2.92,0l-1.06-1.06a.69.69,0,0,1-.8,0Zm2.92,0,.93-.92-1.06-1.06-.93.92Zm.93-.92a2.14,2.14,0,0,0,0-2.91l-1.06,1.06a.66.66,0,0,1,0,.78Zm0-2.91L30.94,26.11l-1.06,1.06L40.35,37.56Z"/></g></g><g id="Vector-2" data-name="Vector"><path id="path282_stroke" data-name="path282 stroke" class="cls-1" d="M28.88,13l-.53.53Zm.7,14.31.53.53,0-.05Zm-.7.69.53.53Zm-.53-14.47A9.83,9.83,0,0,1,29,26.84l1.15,1a11.33,11.33,0,0,0-.74-15.32Zm.7,13.24-.7.69,1.06,1.06.7-.69Zm-.7.69a10,10,0,0,1-14.06,0l-1.06,1.06a11.48,11.48,0,0,0,16.17,0Zm-14.06,0a9.78,9.78,0,0,1,0-13.94l-1.06-1.06a11.28,11.28,0,0,0,0,16.06Zm0-13.94a10,10,0,0,1,14.06,0l1.06-1.06a11.48,11.48,0,0,0-16.17,0Z"/></g></g></g></g></svg>