<svg id="Layer_1" data-name="Layer 1" xmlns="http://www.w3.org/2000/svg" viewBox="0 0 50 50"><defs><style>.cls-1{fill:#4f4f4f;}</style></defs><title>User</title><path class="cls-1" d="M37.41,36.44l-7.59-4.15a3,3,0,0,1-1.37-1.88,4.64,4.64,0,0,1,1.3-3.63A13.24,13.24,0,0,0,33.13,18a8.81,8.81,0,0,0-2.57-6.39A8.2,8.2,0,0,0,25,9.25h-.4a8.26,8.26,0,0,0-5.48,2.32A8.81,8.81,0,0,0,16.56,18a13.2,13.2,0,0,0,3.32,8.74c1.1,1.39,1.56,2.63,1.35,3.69a3,3,0,0,1-1.37,1.88L12.3,36.42a4.87,4.87,0,0,0-2.45,3.66.75.75,0,0,0,.75.82h0l14.24,0,14.24,0h0a.75.75,0,0,0,.75-.82A4.85,4.85,0,0,0,37.41,36.44ZM25,39.38h-.39l-13.08,0A3,3,0,0,1,13,37.75l7.58-4.15a4.53,4.53,0,0,0,2.12-2.88c.31-1.52-.24-3.18-1.7-5A11.85,11.85,0,0,1,18.06,18a7.19,7.19,0,0,1,2.12-5.32,6.66,6.66,0,0,1,9.33,0A7.19,7.19,0,0,1,31.63,18a12,12,0,0,1-3,7.81c-1.4,1.76-2,3.42-1.64,4.94A4.53,4.53,0,0,0,29.1,33.6l7.61,4.17a3,3,0,0,1,1.41,1.64Z"/></svg>