<svg id="MakerShare-Logo-Color" xmlns="http://www.w3.org/2000/svg" viewBox="0 0 96.5 61"><defs><style>.cls-1{fill:#828282;}</style></defs><title>Intel Logo-Grey_1</title><path class="cls-1" d="M46.59,52.14c-16.17,1.49-33-.86-35.38-13.49-1.15-6.23,1.69-12.84,5.45-16.94V19.51C9.88,25.46,6.2,33,8.32,41.88,11,53.28,25.49,59.74,47.56,57.59c8.74-.85,20.17-3.66,28.12-8v-6.2C68.47,47.67,56.53,51.22,46.59,52.14Zm42.6-32.78C85.35.64,49-.55,25.56,13.72v1.58c23.41-12,56.62-12,59.64,5.29,1,5.71-2.2,11.65-7.94,15.07v4.48C84.17,37.6,91.25,29.4,89.19,19.37Z"/><path class="cls-1" d="M74.38,16.64H70.14V35.52c0,2.21,1.07,4.14,4.24,4.44Z"/><path class="cls-1" d="M23.9,23.53H19.65V35.87c0,2.22,1.07,4.14,4.25,4.44Z"/><rect class="cls-1" x="19.65" y="17.21" width="4.23" height="4.02"/><path class="cls-1" d="M49.29,40.12a4.53,4.53,0,0,1-4.88-4.73V19h4.2v4.53h3.17v3.39H48.6v8.2a1.3,1.3,0,0,0,1.45,1.49h1.71v3.5H49.29"/><path class="cls-1" d="M57,33.14a3.49,3.49,0,0,0,3.72,3.73,4.75,4.75,0,0,0,3.86-1.58l2.6,2.47a8.3,8.3,0,0,1-6.49,2.64c-4,0-7.88-2.2-7.88-8.59,0-5.47,3.37-8.56,7.78-8.56s7.07,3.62,7.07,8.37v1.52H57m3.42-6.41a3.23,3.23,0,0,0-3,1.74,4.35,4.35,0,0,0-.4,1.81H63.5C63.41,28.47,62.59,26.73,60.43,26.73Z"/><path class="cls-1" d="M35.31,26.93c1.23,0,1.74.61,1.74,1.6V40.14h4.2V28.5c0-2.36-1.26-5-4.95-5H27.63V40.14h4.21V26.93Z"/><path class="cls-1" d="M78.94,20a1.69,1.69,0,1,1,1.69-1.69A1.68,1.68,0,0,1,78.94,20Zm0-3.09a1.4,1.4,0,1,0,1.41,1.41A1.42,1.42,0,0,0,78.94,16.92Zm.75,2.42h-.32a.07.07,0,0,1-.06,0l-.43-.72-.06,0h-.2v.72a.07.07,0,0,1-.07.08h-.28a.08.08,0,0,1-.07-.08V17.44c0-.11,0-.15.13-.16l.52,0c.53,0,.83.15.83.64v0a.51.51,0,0,1-.38.54l.44.76a.13.13,0,0,1,0,.05A.06.06,0,0,1,79.69,19.34Zm-.41-1.45c0-.2-.13-.27-.4-.27h-.27v.58h.27c.27,0,.4-.09.4-.28Z"/></svg>