<svg id="MakerShare-Logo-Color" xmlns="http://www.w3.org/2000/svg" viewBox="0 0 397 97"><defs><style>.cls-1{fill:#fff;}.cls-2{fill:#828282;}.cls-3{fill:#ed1c24;}.cls-4{fill:#00aeef;}</style></defs><title>Make-Intel-MakerShare Lockup</title><rect class="cls-1" x="309.74" y="54.53" width="72.82" height="27.52"/><rect class="cls-1" x="286.95" y="15.23" width="76.19" height="27.52"/><path class="cls-2" d="M32.67,40.74V56.3c0,.54.13.82.62.82H35v1h-7.1v-1h1.57c.49,0,.62-.28.62-.82V40.85l-6,17.3H21.51l-6-17.72V56.3c0,.54.13.82.62.82h1.7v1H11.58v-1h1.7c.49,0,.62-.28.62-.82V40.71c0-.54-.13-.82-.62-.82h-1.7v-1h6.25l5.42,17.08,5.59-17.07H35v1.05h-1.7C32.8,39.92,32.67,40.2,32.67,40.74Z"/><path class="cls-2" d="M48,48.21v10H46.85L45.8,55.07a5.17,5.17,0,0,1-4.73,3.39,3.82,3.82,0,0,1-3.91-4.06c0-2.26,1.52-3.75,3.91-4l4.66-.54V48.44c0-2.11-1.18-3-2.7-3A3.87,3.87,0,0,0,39.27,49H38.08V45.45a10.94,10.94,0,0,1,5.07-1.23C45.65,44.22,48,45.12,48,48.21ZM45.7,51.55v-.46l-3.16.36c-2.26.26-2.88,1.52-2.88,2.8a2.18,2.18,0,0,0,2.21,2.47C43.92,56.72,45.7,54.35,45.7,51.55Z"/><path class="cls-2" d="M62.36,46,58.88,49.6l5.65,7.84v.8H62.25l-4.91-7L55.28,53.4v3c0,.56.13.82.64.82h1.39v.92H51v-.92h1.39c.52,0,.64-.26.64-.82V40.62c0-.57-.13-.82-.64-.82H51v-.93h4.32V51.4l4.91-5.27c.31-.31.15-.72-.33-.72H58.47v-.92H64.7v.92H63.51A1.37,1.37,0,0,0,62.36,46Z"/><path class="cls-2" d="M72.58,57a3.74,3.74,0,0,0,3.81-3.14h1.13a5.14,5.14,0,0,1-5.4,4.6c-4,0-6-3.32-6-7.13s2-7.12,6.17-7.12c3,0,5.42,1.73,5.42,5.84,0,.51,0,1,0,1.29h-9C68.57,53.95,69.52,57,72.58,57Zm-3.8-7.15h6.48c0-3.24-1.26-4.45-3-4.45C70.32,45.41,69.09,47,68.78,49.86Z"/><path class="cls-2" d="M95.7,51.43h-4.6v4.86H89.52V51.43H84.89V49.91h4.63V45h1.57v4.91h4.6Z"/><path class="cls-2" d="M109.11,57.14h1.7v1h-7.28v-1h1.7c.49,0,.62-.28.62-.82V40.74c0-.54-.13-.82-.62-.82h-1.7v-1h7.28v1h-1.7c-.49,0-.62.28-.62.82V56.32C108.49,56.86,108.62,57.14,109.11,57.14Z"/><path class="cls-2" d="M128.11,58.18h-6.35v-.92h1.39c.52,0,.64-.26.64-.82V49c0-2.16-1.26-3.06-2.83-3.06-2.24,0-3.65,1.82-3.65,4.27v6.17c0,.56.13.82.64.82h1.39v.92H113v-.92h1.39c.51,0,.64-.26.64-.82V46.24c0-.57-.13-.82-.64-.82H113v-.92h4.06V48a4.42,4.42,0,0,1,4.53-3.73c2.42,0,4.5,1.39,4.5,4.61v7.59c0,.56.13.82.64.82h1.39Z"/><path class="cls-2" d="M137.59,58.18h-2.78c-2,0-3.21-1-3.21-3.68V46h-2.73V44.5h2.73v-3l2.29-.64V44.5h3.39V46h-3.39v8.18c0,1.18-.1,2.52,2,2.52h1.72Z"/><path class="cls-2" d="M145.61,57a3.74,3.74,0,0,0,3.81-3.14h1.13a5.14,5.14,0,0,1-5.4,4.6c-4,0-6-3.32-6-7.13s2-7.12,6.17-7.12c3,0,5.42,1.73,5.42,5.84,0,.51,0,1,0,1.29h-9C141.6,54,142.55,57,145.61,57Zm-3.8-7.15h6.48c0-3.24-1.26-4.45-3-4.45C143.35,45.43,142.12,47,141.81,49.88Z"/><path class="cls-2" d="M159,58.19h-6.35v-.92H154c.52,0,.64-.26.64-.82V40.65c0-.57-.13-.82-.64-.82h-1.39V38.9H157V56.44c0,.56.13.82.64.82H159Z"/><path class="cls-2" d="M172.19,56.34c0,.54.13.82.62.82l2,0v1h-7.53v-1h1.7c.49,0,.62-.28.62-.82V40.75c0-.54-.13-.82-.62-.82h-1.7v-1h8.54c4.14,0,6.15,2.78,6.14,5.61,0,3-2.21,6-6.56,6h-3.16Zm2.37-7.12a4.44,4.44,0,0,0,4.61-4.58,4.36,4.36,0,0,0-4.68-4.42h-2.29v9Z"/><path class="cls-2" d="M193.66,46.47h-.75c-1.8,0-4.5.41-4.5,4.37v5.61c0,.56.13.82.64.82h1.65v.92h-6.61v-.92h1.39c.51,0,.64-.26.64-.82V46.26c0-.57-.13-.82-.64-.82h-1.39v-.92h4.06v3.86c.62-2.67,2.34-4,4.32-4h1.18Z"/><path class="cls-2" d="M201.29,57a3.74,3.74,0,0,0,3.81-3.14h1.13a5.14,5.14,0,0,1-5.4,4.6c-4,0-6-3.32-6-7.13s2-7.12,6.17-7.12c3,0,5.42,1.73,5.42,5.84,0,.51,0,1,0,1.29h-9C197.28,54,198.23,57,201.29,57Zm-3.8-7.15H204c0-3.24-1.26-4.45-3-4.45C199,45.44,197.79,47,197.48,49.89Z"/><path class="cls-2" d="M219.1,54.4c0,2.88-2.6,4.11-5.32,4.11A8.67,8.67,0,0,1,208.84,57V53.21H210a3.75,3.75,0,0,0,3.88,4.09c1.62,0,3-.87,3-2.37s-1.26-2-3-2.47c-2.11-.57-5.2-1.13-5.19-4.35,0-2.88,2.5-3.86,5-3.86a11.7,11.7,0,0,1,4.55,1v3.16h-1.18c0-2-1.83-3-3.5-3-1.44,0-2.83.67-2.83,2.26,0,1.75,1.65,2.16,3.81,2.73C217,51.11,219.1,51.75,219.1,54.4Z"/><path class="cls-2" d="M227.76,57a3.74,3.74,0,0,0,3.81-3.14h1.13a5.14,5.14,0,0,1-5.4,4.6c-4,0-6-3.32-6-7.13s2-7.12,6.17-7.12c3,0,5.42,1.73,5.42,5.84,0,.51,0,1,0,1.29h-9C223.75,54,224.71,57,227.76,57ZM224,49.9h6.48c0-3.24-1.26-4.45-3-4.45C225.51,45.45,224.27,47,224,49.9Z"/><path class="cls-2" d="M250.06,58.21H243.7v-.92h1.39c.52,0,.64-.26.64-.82V49.08c0-2.16-1.26-3.06-2.83-3.06-2.24,0-3.65,1.82-3.65,4.27v6.17c0,.56.13.82.64.82h1.39v.92h-6.35v-.92h1.39c.51,0,.64-.26.64-.82V46.28c0-.57-.13-.82-.64-.82h-1.39v-.92H239V48a4.42,4.42,0,0,1,4.53-3.73c2.42,0,4.5,1.39,4.5,4.61v7.59c0,.56.13.82.64.82h1.39Z"/><path class="cls-2" d="M259.54,58.22h-2.78c-2,0-3.21-1-3.21-3.68V46h-2.73V44.53h2.73v-3l2.29-.64v3.65h3.39V46h-3.39V54.2c0,1.18-.1,2.52,2,2.52h1.72Z"/><path class="cls-3" d="M299.62,37.09l-3.32-12h-.1v12h-3.61V20.86h6.08l2.86,10.85h.08l2.73-10.85h6V37.1h-3.92v-12h-.1l-3.3,12Z"/><path class="cls-3" d="M322.48,34c0,.59.26.85.72.85a2.13,2.13,0,0,0,1-.21v2a3.87,3.87,0,0,1-2.42.75,2.61,2.61,0,0,1-2.71-2,4,4,0,0,1-3.84,2c-2.29,0-3.74-1.16-3.74-3.12,0-2.19,1.65-3.12,4.18-3.61l3.2-.57v-.21a1.52,1.52,0,0,0-1.67-1.73,1.78,1.78,0,0,0-1.83,1.62l-3.45-.26c.39-2.45,2.22-4.15,5.49-4.15,3,0,5.13,1.34,5.13,4.46Zm-3.66-2-1.88.39c-1.16.23-1.88.51-1.88,1.42,0,.67.52,1.08,1.31,1.08a2.46,2.46,0,0,0,2.45-2.65Z"/><path class="cls-3" d="M328.59,37.1h-3.71V20.86h3.71v9l4.33-4.23h4.41l-4.82,4.53,5,6.91h-4.2l-3.58-4.85-1.13,1.11Z"/><path class="cls-3" d="M348,33.34c-.59,2.6-2.63,4.07-5.62,4.07-3.63,0-6.21-2.22-6.21-5.85a6,6,0,0,1,6.13-6.21A5.42,5.42,0,0,1,348,31.08v1.13h-8.25a2.51,2.51,0,0,0,2.68,2.4,2.37,2.37,0,0,0,2.5-1.55Zm-3.5-3.12a2.16,2.16,0,0,0-2.22-2.17,2.3,2.3,0,0,0-2.4,2.16Z"/><path class="cls-3" d="M357.28,29.3a3.68,3.68,0,0,0-2-.46c-1.55,0-2.58.88-2.58,2.86v5.41H349V25.66h3.71v2.09a3.42,3.42,0,0,1,3.17-2.4,2.62,2.62,0,0,1,1.6.46Z"/><path class="cls-3" d="M319,70.19c.15,2.24,1.83,3.14,3.84,3.14,1.73,0,2.81-.67,2.81-1.75s-1-1.34-2.37-1.62l-3-.54c-2.58-.49-4.41-1.93-4.41-4.69,0-3.2,2.5-5.18,6.44-5.18,4.41,0,6.8,2.19,6.88,5.8l-3.61.1c-.1-1.91-1.42-2.84-3.3-2.84-1.65,0-2.58.67-2.58,1.78,0,.93.72,1.26,1.91,1.5l3,.54c3.32.59,4.84,2.24,4.84,4.9,0,3.35-2.91,5.08-6.62,5.07-4.33,0-7.42-2.14-7.42-6.08Z"/><path class="cls-3" d="M334.33,76.1h-3.71V59.86h3.71v6.57a4,4,0,0,1,3.74-2.09c3.09,0,4.12,2.14,4.12,4.59V76.1h-3.71V69.83c0-1.65-.54-2.55-1.91-2.55s-2.24,1.18-2.24,3Z"/><path class="cls-3" d="M354,73c0,.59.26.85.72.85a2.13,2.13,0,0,0,1-.21v2a3.87,3.87,0,0,1-2.42.75,2.61,2.61,0,0,1-2.71-2,4,4,0,0,1-3.84,2c-2.29,0-3.74-1.16-3.74-3.12,0-2.19,1.65-3.12,4.18-3.61l3.2-.57v-.21a1.52,1.52,0,0,0-1.67-1.73,1.78,1.78,0,0,0-1.83,1.62l-3.45-.26c.39-2.45,2.22-4.15,5.49-4.15,3,0,5.13,1.34,5.13,4.46Zm-3.66-2-1.88.39c-1.16.23-1.88.51-1.88,1.42,0,.67.51,1.08,1.31,1.08a2.46,2.46,0,0,0,2.45-2.65Z"/><path class="cls-3" d="M364.66,68.3a3.68,3.68,0,0,0-2-.46c-1.55,0-2.58.88-2.58,2.86V76.1h-3.71V64.66h3.71v2.09a3.42,3.42,0,0,1,3.17-2.4,2.62,2.62,0,0,1,1.6.46Z"/><path class="cls-3" d="M376.85,72.34c-.59,2.6-2.63,4.07-5.62,4.07-3.63,0-6.21-2.22-6.21-5.85a6,6,0,0,1,6.13-6.21,5.42,5.42,0,0,1,5.77,5.72v1.13h-8.25a2.51,2.51,0,0,0,2.68,2.4,2.37,2.37,0,0,0,2.5-1.55Zm-3.5-3.12a2.16,2.16,0,0,0-2.22-2.17,2.3,2.3,0,0,0-2.4,2.16Z"/><path class="cls-4" d="M365.4,12.47l-81.21,0v32l23.37,40.32,77.78,0v-32ZM307,51.75V78.27L288,45.51l77.95,0V19.79l15.8,32Zm56.18-36.51V42.76l-76.19,0V15.22ZM309.73,82V54.52l72.82,0V82.06Z"/></svg>