<svg id="MakerShare-Logo-Color" xmlns="http://www.w3.org/2000/svg" viewBox="0 0 233 61"><defs><style>.cls-1{fill:#828282;}</style></defs><title>Make Intel Grey Lockup</title><path class="cls-1" d="M187.32,50.2c-15.07,1.39-30.78-.8-33-12.58-1.08-5.81,1.57-12,5.08-15.79v-2c-6.32,5.54-9.75,12.56-7.77,20.84,2.52,10.63,16,16.64,36.57,14.65,8.14-.79,18.8-3.41,26.21-7.48V42C207.71,46,196.59,49.34,187.32,50.2ZM227,19.65c-3.57-17.45-37.46-18.56-59.3-5.26v1.47c21.82-11.22,52.76-11.15,55.58,4.93.95,5.32-2.05,10.86-7.4,14V39C222.34,36.64,228.94,29,227,19.65Z"/><path class="cls-1" d="M213.21,17.11h-4v17.6c0,2.06,1,3.86,4,4.14Z"/><path class="cls-1" d="M166.17,23.53h-4V35c0,2.07,1,3.86,4,4.14Z"/><rect class="cls-1" x="162.21" y="17.64" width="3.95" height="3.75"/><path class="cls-1" d="M189.83,39a4.22,4.22,0,0,1-4.55-4.41V19.31h3.92v4.22h2.95V26.7h-2.95v7.64a1.22,1.22,0,0,0,1.35,1.39h1.59V39h-2.31"/><path class="cls-1" d="M197,32.49A3.25,3.25,0,0,0,200.51,36a4.42,4.42,0,0,0,3.6-1.47l2.42,2.31a7.74,7.74,0,0,1-6,2.46c-3.75,0-7.34-2-7.34-8,0-5.1,3.14-8,7.25-8s6.59,3.37,6.59,7.8v1.41H197m3.18-6a3,3,0,0,0-2.81,1.62,4,4,0,0,0-.38,1.68h6C203,28.13,202.23,26.51,200.22,26.51Z"/><path class="cls-1" d="M176.8,26.7c1.15,0,1.63.57,1.63,1.49V39h3.92V28.16a4.29,4.29,0,0,0-4.61-4.63h-8.09V39h3.92V26.7Z"/><path class="cls-1" d="M217.46,20.25A1.57,1.57,0,1,1,219,18.68,1.56,1.56,0,0,1,217.46,20.25Zm0-2.88a1.31,1.31,0,1,0,1.31,1.31A1.32,1.32,0,0,0,217.46,17.37Zm.7,2.25h-.29a.07.07,0,0,1-.06,0l-.4-.68-.06,0h-.18v.67a.07.07,0,0,1-.07.07h-.26a.07.07,0,0,1-.07-.07v-1.7c0-.1,0-.14.12-.15l.48,0c.49,0,.78.14.78.6v0a.48.48,0,0,1-.35.5l.41.7a.13.13,0,0,1,0,0A.06.06,0,0,1,218.16,19.62Zm-.38-1.35c0-.19-.12-.25-.37-.25h-.25v.54h.25c.25,0,.37-.08.37-.26Z"/><path class="cls-1" d="M7.31,14.35h8.1l6.22,20.51h.08l5.8-20.51h8.29V42.24H29.89v-19h-.08a50,50,0,0,1-1.55,6.22L24.08,42.24H18.66L14.51,29.43a49.48,49.48,0,0,1-1.62-6.52h-.08V42.24H7.31Z"/><path class="cls-1" d="M39.65,37.12c0-4.64,3.92-7.2,12.74-7.92v-.49c0-1.47-.75-2.41-2.71-2.41a10.7,10.7,0,0,0-6.6,2.49l-2.56-3.47a14.09,14.09,0,0,1,10-3.58c5.5,0,7.76,2.71,7.76,7.88v7.73a13.71,13.71,0,0,0,.57,4.9h-6a9.64,9.64,0,0,1-.45-2.94,8.88,8.88,0,0,1-7,3.24C42.29,42.54,39.65,40.55,39.65,37.12Zm12.74-.87V32.52c-4.79.49-6.82,1.7-6.82,3.54,0,1.28.9,1.92,2.22,1.92A6.21,6.21,0,0,0,52.39,36.25Z"/><path class="cls-1" d="M62.72,14.35h6.07v15.3L75,22.15h6.52L75,29.65l6.94,12.59H75.69l-4.45-8.18-2.45,2.75v5.43H62.72Z"/><path class="cls-1" d="M82.62,32.22c0-7.8,6-10.48,10.1-10.48S102,23.81,102,32.93v.9H88.65c.3,3.32,2.15,4.6,4.67,4.6a9.23,9.23,0,0,0,6-2.41l2.34,3.62a13,13,0,0,1-8.74,3C87.63,42.66,82.62,40,82.62,32.22Zm13.91-2c-.3-2.83-1.58-4.18-3.84-4.18-1.88,0-3.51,1.24-4,4.18Z"/><path class="cls-1" d="M105.46,22.15H112V28h-6.52Zm0,14.25H112v5.84h-6.52Z"/><rect class="cls-1" x="131.13" y="22.38" width="0.52" height="19.93"/><rect class="cls-1" x="121.43" y="32.08" width="19.93" height="0.52"/></svg>