<svg id="MakerShare-Logo-Color" xmlns="http://www.w3.org/2000/svg" viewBox="0 0 111 61"><defs><style>.cls-1{fill:#828282;}</style></defs><title>Make Logo - Grey</title><path class="cls-1" d="M7.5,12.35h8.08l6.2,20.45h.08l5.79-20.45h8.27V40.17H30v-19h-.08a50,50,0,0,1-1.54,6.2L24.23,40.17H18.82L14.68,27.39a49.23,49.23,0,0,1-1.62-6.5H13V40.17H7.5Z"/><path class="cls-1" d="M37.5,35.06c0-4.62,3.91-7.18,12.71-7.9v-.49c0-1.47-.75-2.41-2.71-2.41a10.67,10.67,0,0,0-6.58,2.48l-2.56-3.46a14.06,14.06,0,0,1,10-3.57c5.49,0,7.75,2.71,7.75,7.86v7.71a13.7,13.7,0,0,0,.56,4.89h-6a9.62,9.62,0,0,1-.45-2.93,8.85,8.85,0,0,1-7,3.23C40.13,40.47,37.5,38.48,37.5,35.06Zm12.71-.86V30.47c-4.77.49-6.8,1.69-6.8,3.53,0,1.28.9,1.92,2.22,1.92A6.2,6.2,0,0,0,50.21,34.19Z"/><path class="cls-1" d="M58.25,12.35h6.05V27.61l6.24-7.48h6.51l-6.54,7.48,6.92,12.56H71.19L66.75,32l-2.44,2.74v5.42H58.25Z"/><path class="cls-1" d="M75.85,30.17c0-7.78,5.94-10.45,10.08-10.45s9.21,2.07,9.21,11.17v.9H81.86c.3,3.31,2.14,4.59,4.66,4.59A9.21,9.21,0,0,0,92.46,34l2.33,3.61a13,13,0,0,1-8.72,3C80.85,40.58,75.85,37.91,75.85,30.17Zm13.87-2c-.3-2.82-1.58-4.17-3.83-4.17-1.88,0-3.5,1.24-3.95,4.17Z"/><path class="cls-1" d="M96.37,20.13h6.5V26h-6.5Zm0,14.21h6.5v5.83h-6.5Z"/></svg>