<svg id="MakerShare-Logo-Color" xmlns="http://www.w3.org/2000/svg" viewBox="0 0 288 221"><defs><style>.cls-1{fill:#fff;}.cls-2{fill:#00aeef;}.cls-3{fill:#ed1c24;}</style></defs><title>Maker Share-Logo-Clr</title><rect class="cls-1" x="80.54" y="126.05" width="185.72" height="70.18"/><rect class="cls-1" x="22.4" y="25.83" width="194.32" height="70.18"/><path class="cls-2" d="M222.46,18.76H15.33V100.5L75,203.3H273.33V121.69ZM73.47,119v67.65L25,103.08H223.8V37.43L264.11,119ZM216.73,25.83V96H22.4V25.83ZM80.54,196.23V126.05H266.26v70.18Z"/><path class="cls-3" d="M34.08,38.67H47l9.89,32.59H57l9.23-32.59H79.37V83H70V52.75h-.12a79.39,79.39,0,0,1-2.46,9.89L60.74,83H52.11L45.52,62.64a78.68,78.68,0,0,1-2.58-10.36h-.12V83H34.08Z"/><path class="cls-3" d="M83.86,74.86c0-7.37,6.23-11.44,20.25-12.58V61.5c0-2.34-1.2-3.83-4.31-3.83a17,17,0,0,0-10.48,4l-4.07-5.51c3.18-2.88,8-5.69,15.94-5.69,8.75,0,12.34,4.31,12.34,12.52V75.22c0,3.83.24,6.17.9,7.79h-9.59a15.32,15.32,0,0,1-.72-4.67A14.11,14.11,0,0,1,93,83.49C88.05,83.49,83.86,80.31,83.86,74.86Zm20.25-1.38V67.55c-7.61.78-10.84,2.7-10.84,5.63,0,2,1.44,3.06,3.53,3.06A9.87,9.87,0,0,0,104.11,73.48Z"/><path class="cls-3" d="M118.86,38.67h9.65V63l9.95-11.92h10.36L138.39,63l11,20h-9.95L132.4,70l-3.89,4.37V83h-9.65Z"/><path class="cls-3" d="M148.92,67.07c0-12.4,9.47-16.65,16.06-16.65s14.68,3.3,14.68,17.79v1.44H158.5c.48,5.27,3.41,7.31,7.43,7.31a14.67,14.67,0,0,0,9.47-3.83l3.71,5.75a20.63,20.63,0,0,1-13.9,4.79C156.88,83.67,148.92,79.41,148.92,67.07ZM171,64c-.48-4.49-2.52-6.65-6.11-6.65-3,0-5.57,2-6.29,6.65Z"/><path class="cls-3" d="M183.68,51.08h9.65v5.33h.06a12.09,12.09,0,0,1,10.78-6h.3L204.35,59c-.36-.06-1.92-.18-2.52-.18a10.67,10.67,0,0,0-8.51,4.37V83h-9.65Z"/><path class="cls-3" d="M91.18,173.06l7.46-4.43a13.32,13.32,0,0,0,12.13,7.64c4.55,0,7.82-1.7,7.82-5.15s-3.21-4.85-9.09-6.49c-8-2.24-16.37-4.3-16.37-13.7,0-8.37,6.55-13.4,16.19-13.4,9.22,0,14.67,4.43,17.82,9.22L120.28,152a13.36,13.36,0,0,0-11-6.37c-4.18,0-6.49,1.82-6.49,4.49,0,3.58,3.33,4.85,9.22,6.49,7.88,2.12,16.25,4.61,16.25,13.88,0,7.22-5.46,13.64-17.95,13.64C100.58,184.1,94.52,179.49,91.18,173.06Z"/><path class="cls-3" d="M132.59,138.38h9.76V156a13.82,13.82,0,0,1,11.16-5.76c5.52,0,9.46,2.73,9.46,9.4v23.58H153.2V162.76c0-2.91-1.09-4.43-3.76-4.43s-4.91,1.33-7.09,3.21v21.7h-9.76Z"/><path class="cls-3" d="M166.41,175c0-7.46,6.3-11.58,20.49-12.73v-.79c0-2.36-1.21-3.88-4.37-3.88a17.2,17.2,0,0,0-10.61,4L167.8,156c3.21-2.91,8.06-5.76,16.13-5.76,8.85,0,12.49,4.37,12.49,12.67v12.43c0,3.88.24,6.24.91,7.88h-9.7a15.51,15.51,0,0,1-.73-4.73,14.28,14.28,0,0,1-11.28,5.21C170.65,183.73,166.41,180.52,166.41,175Zm20.49-1.39v-6c-7.7.79-11,2.73-11,5.7,0,2.06,1.45,3.09,3.58,3.09A10,10,0,0,0,186.9,173.61Z"/><path class="cls-3" d="M201.83,150.93h9.76v5.4h.06a12.23,12.23,0,0,1,10.91-6.06h.3l-.12,8.67c-.36-.06-1.94-.18-2.55-.18a10.79,10.79,0,0,0-8.61,4.43v20.07h-9.76Z"/><path class="cls-3" d="M223.84,167.12c0-12.55,9.58-16.85,16.25-16.85s14.85,3.33,14.85,18v1.46h-21.4c.49,5.33,3.46,7.4,7.52,7.4a14.84,14.84,0,0,0,9.58-3.88l3.76,5.82a20.87,20.87,0,0,1-14.06,4.85C231.9,183.91,223.84,179.61,223.84,167.12ZM246.21,164c-.49-4.55-2.55-6.73-6.18-6.73-3,0-5.64,2-6.37,6.73Z"/></svg>