<svg xmlns="http://www.w3.org/2000/svg" viewBox="0 0 70 50"><defs><style>.cls-1{fill:#ec2227;}</style></defs><title>Circle X</title><g id="Layer_3" data-name="Layer 3"><path class="cls-1" d="M30.54,46.28A22.08,22.08,0,0,1,26.41,45a21.34,21.34,0,0,1-3.81-2,22.7,22.7,0,0,1-3.38-2.79,21,21,0,0,1-2.78-3.37,22.91,22.91,0,0,1-2-3.81,21.18,21.18,0,0,1-1.25-4.13,22.74,22.74,0,0,1,0-8.72,21.51,21.51,0,0,1,1.25-4.13,22.33,22.33,0,0,1,12-12,21.57,21.57,0,0,1,4.13-1.25,22.74,22.74,0,0,1,8.72,0A21.54,21.54,0,0,1,43.39,4a22.43,22.43,0,0,1,3.81,2,22.46,22.46,0,0,1,6.17,6.17,21.84,21.84,0,0,1,2,3.81,22.74,22.74,0,0,1,1.25,4.13,22.16,22.16,0,0,1,0,8.72,22.19,22.19,0,0,1-3.28,7.93,21,21,0,0,1-2.78,3.37A22.7,22.7,0,0,1,47.2,43a21.37,21.37,0,0,1-3.81,2,22.05,22.05,0,0,1-4.14,1.24,22.74,22.74,0,0,1-8.72,0Zm-3.35-40A20,20,0,0,0,16.61,16.83a19.23,19.23,0,0,0-1.56,7.72,19.23,19.23,0,0,0,1.56,7.72,20,20,0,0,0,4.26,6.3,20.21,20.21,0,0,0,6.31,4.25,19.84,19.84,0,0,0,15.43,0A19.92,19.92,0,0,0,53.17,32.27a19.84,19.84,0,0,0,0-15.43,20.24,20.24,0,0,0-4.25-6.31,20,20,0,0,0-6.3-4.26,19.84,19.84,0,0,0-15.43,0Zm9.47,18.29,9.53-8.48a1.17,1.17,0,0,0,.38-.8,1.12,1.12,0,0,0-.28-.84,1.16,1.16,0,0,0-1.64-.09L34.9,23l-9.73-8.64a1.16,1.16,0,0,0-.84-.3,1.09,1.09,0,0,0-.8.39,1.15,1.15,0,0,0-.3.84,1.09,1.09,0,0,0,.39.8l9.53,8.48L23.62,33a1.09,1.09,0,0,0-.39.8,1.15,1.15,0,0,0,.3.84.91.91,0,0,0,.39.3,1.27,1.27,0,0,0,.48.09,1.29,1.29,0,0,0,.41-.07.93.93,0,0,0,.36-.23L34.9,26.1l9.73,8.64A.92.92,0,0,0,45,35a1.29,1.29,0,0,0,.41.07,1.22,1.22,0,0,0,.46-.09,1.09,1.09,0,0,0,.41-.3,1.12,1.12,0,0,0,.28-.84,1.17,1.17,0,0,0-.38-.8Z"/></g></svg>