<svg xmlns="http://www.w3.org/2000/svg" viewBox="0 0 70 50"><defs><style>.cls-1{fill:#2fabe2;}</style></defs><title>Comment</title><g id="Layer_3" data-name="Layer 3"><path class="cls-1" d="M11.28,46.79a1.19,1.19,0,0,1-.46-.7,1.18,1.18,0,0,1,0-.81,1.29,1.29,0,0,1,.55-.64,15,15,0,0,0,2.84-2.16,19.22,19.22,0,0,0,2-2.3A13.85,13.85,0,0,0,17.57,38a14.91,14.91,0,0,0,.71-1.69,21.82,21.82,0,0,1-3.18-3,18.85,18.85,0,0,1-2.37-3.41,16.47,16.47,0,0,1-1.46-3.73,15.71,15.71,0,0,1-.5-3.92,15.46,15.46,0,0,1,.51-3.94,16.92,16.92,0,0,1,1.5-3.77,14.35,14.35,0,0,1,1-1.72q.58-.83,1.25-1.6a18.36,18.36,0,0,1,1.44-1.5q.78-.73,1.64-1.39A24.62,24.62,0,0,1,21.91,6,27.26,27.26,0,0,1,26.13,4.2,29.69,29.69,0,0,1,30.7,3.12a31.7,31.7,0,0,1,9.65,0A30.08,30.08,0,0,1,44.93,4.2,26.62,26.62,0,0,1,49.15,6a26.07,26.07,0,0,1,3.77,2.41,20,20,0,0,1,1.63,1.39q.76.73,1.44,1.5a18.48,18.48,0,0,1,1.25,1.6,18.79,18.79,0,0,1,1.06,1.72,16.92,16.92,0,0,1,1.5,3.77,15.59,15.59,0,0,1,0,7.9A16.85,16.85,0,0,1,58.29,30q-.48.87-1.06,1.69A18.36,18.36,0,0,1,56,33.33q-.68.78-1.44,1.5a19.89,19.89,0,0,1-1.63,1.39,24.1,24.1,0,0,1-3.77,2.42,27.48,27.48,0,0,1-4.21,1.76,29.54,29.54,0,0,1-4.58,1.08,31.4,31.4,0,0,1-4.82.37,31.28,31.28,0,0,1-4-.25,31.79,31.79,0,0,1-3.86-.74q-.84.56-2.34,1.46T22,44.16q-1.45.71-2.8,1.26t-2.6.92a18.73,18.73,0,0,1-2.37.55,13.59,13.59,0,0,1-2.14.18A1.28,1.28,0,0,1,11.28,46.79ZM26.92,6.69a23.65,23.65,0,0,0-7,3.63,17.72,17.72,0,0,0-4.76,5.4,13.18,13.18,0,0,0-1.74,6.58,12.83,12.83,0,0,0,.48,3.5,14.73,14.73,0,0,0,1.4,3.32,16.47,16.47,0,0,0,2.25,3,18.61,18.61,0,0,0,3.07,2.63,1.24,1.24,0,0,1,.47.62,1.28,1.28,0,0,1,0,.78q-.13.43-.39,1.2a15,15,0,0,1-.75,1.73,21.94,21.94,0,0,1-1.21,2.09A17.6,17.6,0,0,1,17,43.47q1.27-.46,2.57-1t2.56-1.26q1.26-.67,2.43-1.4t2.19-1.41a1.06,1.06,0,0,1,.52-.22,1.44,1.44,0,0,1,.57,0,27.13,27.13,0,0,0,3.79.8,28.79,28.79,0,0,0,3.94.27,27.23,27.23,0,0,0,8.62-1.34,23.69,23.69,0,0,0,7-3.64,17.83,17.83,0,0,0,4.75-5.38,13.31,13.31,0,0,0,0-13.17,17.78,17.78,0,0,0-4.75-5.4,23.48,23.48,0,0,0-7-3.63,27.48,27.48,0,0,0-8.62-1.32A27.48,27.48,0,0,0,26.92,6.69Z"/></g></svg>