<svg xmlns="http://www.w3.org/2000/svg" viewBox="0 0 70 50"><defs><style>.cls-1{fill:#2fabe2;}</style></defs><title>Health</title><g id="Layer_3" data-name="Layer 3"><path class="cls-1" d="M12.84,26.4a1.22,1.22,0,0,1-.5-.57,24.19,24.19,0,0,1-1-2.32,22,22,0,0,1-.69-2.34,21.78,21.78,0,0,1-.42-2.31,18.19,18.19,0,0,1-.14-2.27,13.56,13.56,0,0,1,1.11-5.46,14.2,14.2,0,0,1,7.47-7.48,13.54,13.54,0,0,1,5.47-1.11,11,11,0,0,1,2,.18,12.83,12.83,0,0,1,2,.54,15.61,15.61,0,0,1,2,.86A14,14,0,0,1,32,5.31,14.92,14.92,0,0,1,34,7a15.2,15.2,0,0,1,1.57,1.92A13.06,13.06,0,0,1,37.09,7a15.53,15.53,0,0,1,2-1.71,14.39,14.39,0,0,1,1.88-1.19,14.86,14.86,0,0,1,2-.86,12.78,12.78,0,0,1,2-.54,11.17,11.17,0,0,1,2-.18,13.57,13.57,0,0,1,5.46,1.11,14.17,14.17,0,0,1,7.48,7.48,13.58,13.58,0,0,1,1.11,5.46,18.35,18.35,0,0,1-.14,2.27,22,22,0,0,1-.42,2.31,22.24,22.24,0,0,1-.69,2.34,24.4,24.4,0,0,1-1,2.32,1.26,1.26,0,0,1-.76.71,1.29,1.29,0,0,1-1-.05,1.32,1.32,0,0,1-.69-.76,1.26,1.26,0,0,1,0-1,22,22,0,0,0,.86-2.08q.36-1,.61-2a16.36,16.36,0,0,0,.37-2,17.19,17.19,0,0,0,.12-2,11.14,11.14,0,0,0-.89-4.43,11.3,11.3,0,0,0-2.44-3.62,11.61,11.61,0,0,0-3.62-2.43,11,11,0,0,0-4.41-.89,9.21,9.21,0,0,0-3.33.63,12.55,12.55,0,0,0-3,1.65A12.09,12.09,0,0,0,38.2,9.8a8.62,8.62,0,0,0-1.41,2.53,1.32,1.32,0,0,1-.48.65,1.27,1.27,0,0,1-.77.26,1.36,1.36,0,0,1-1.28-.91A8.65,8.65,0,0,0,32.85,9.8a12.39,12.39,0,0,0-5.34-3.94,9.22,9.22,0,0,0-3.33-.63,11.14,11.14,0,0,0-4.43.89,11.39,11.39,0,0,0-3.62,2.43,11.57,11.57,0,0,0-2.44,3.62,11,11,0,0,0-.9,4.43,15.44,15.44,0,0,0,.13,2,17.94,17.94,0,0,0,.38,2q.25,1,.61,2t.84,2.08a1.3,1.3,0,0,1,.05,1,1.27,1.27,0,0,1-.68.76l-.3.09a1,1,0,0,1-.27,0A1.32,1.32,0,0,1,12.84,26.4ZM38.23,37.29h0a2.19,2.19,0,0,1-1-.37,2.69,2.69,0,0,1-1-1.67L33,23.66l-2.17,8.77a2.72,2.72,0,0,1-.93,1.68,2.6,2.6,0,0,1-1,.46,2.38,2.38,0,0,1-1.1-.21,2.78,2.78,0,0,1-1.28-1.44l-1.62-3.26-.1-.18-.1-.13v0h0a5.52,5.52,0,0,1-2.19,1.83,6.49,6.49,0,0,1-2.92.73H16.81a1.28,1.28,0,0,1-.94-.39,1.31,1.31,0,0,1-.39-1,1.34,1.34,0,0,1,1.33-1.33h2.66a3.73,3.73,0,0,0,1.72-.44,3.2,3.2,0,0,0,1.2-.94,2.93,2.93,0,0,1,1.07-1,2.57,2.57,0,0,1,1.31-.3,2.53,2.53,0,0,1,1.4.55,3.81,3.81,0,0,1,1.06,1.33l1.18,2.38,2.51-10.18A2.84,2.84,0,0,1,31.8,19a1.89,1.89,0,0,1,1.07-.4,2,2,0,0,1,1.06.38,2.76,2.76,0,0,1,.93,1.66L38.3,32.88l3.16-9.66a2.71,2.71,0,0,1,1-1.62,2.28,2.28,0,0,1,1.06-.37,2.44,2.44,0,0,1,1.08.27A2.76,2.76,0,0,1,45.82,23l1.93,4.6a2.52,2.52,0,0,0,1,1.15,2.67,2.67,0,0,0,1.46.5h4a1.34,1.34,0,0,1,1.33,1.33,1.31,1.31,0,0,1-.39,1,1.28,1.28,0,0,1-.94.39h-4a5.72,5.72,0,0,1-4.94-3.29l-1.59-3.76L40.31,35.34a2.72,2.72,0,0,1-1,1.62,2.3,2.3,0,0,1-1,.34ZM35.2,48a1.53,1.53,0,0,1-.31-.12L33.43,47q-1.32-.78-3.36-2.19t-4.54-3.41a65.77,65.77,0,0,1-5-4.45,1.36,1.36,0,0,1,0-1.91,1.32,1.32,0,0,1,1.88,0q2,2,4,3.63t3.81,3Q32,42.91,33.41,43.8l2.13,1.33q.73-.44,2.13-1.34t3.17-2.19q1.77-1.29,3.81-3a52.76,52.76,0,0,0,4-3.62,1.34,1.34,0,0,1,2.3,1,1.26,1.26,0,0,1-.42,1,61.15,61.15,0,0,1-5,4.45Q43,43.38,41,44.79T37.61,47q-1.32.78-1.42.86a1.47,1.47,0,0,1-.33.12,1.45,1.45,0,0,1-.33,0A1.39,1.39,0,0,1,35.2,48Z"/></g></svg>