<svg xmlns="http://www.w3.org/2000/svg" viewBox="0 0 70 55"><defs><style>.cls-1{fill:#2bace2;}</style></defs><title>Mega Phone</title><g id="Layer_3" data-name="Layer 3"><path class="cls-1" d="M61.61,8.79a21.87,21.87,0,0,1,.75,2.65q.31,1.42.53,3t.33,3.21q.11,1.67.11,3.38t-.11,3.4q-.11,1.67-.33,3.21t-.53,3a21.87,21.87,0,0,1-.75,2.65Q60.41,36.85,59,38a4.46,4.46,0,0,1-2.59,1.11h-.11a14.58,14.58,0,0,1-3.2-.58Q51,37.93,47.91,37q-2.2-.65-4.79-1.38t-5.47-1.47q-2.88-.73-6-1.38t-6.38-1.14l7.14,16.82a3.59,3.59,0,0,1,.31,1.63,2.84,2.84,0,0,1-.47,1.47,3,3,0,0,1-1.17,1,3.59,3.59,0,0,1-1.63.37H25.82a4.83,4.83,0,0,1-3-1.09A4.71,4.71,0,0,1,21,49.22L16.38,30.8l-1.53,0H13.32A3.66,3.66,0,0,1,11.11,30a6.47,6.47,0,0,1-1.76-2,11.5,11.5,0,0,1-1.17-3.08A16.8,16.8,0,0,1,7.76,21a16.68,16.68,0,0,1,.42-3.84,11.5,11.5,0,0,1,1.17-3.08,6.48,6.48,0,0,1,1.76-2,3.66,3.66,0,0,1,2.21-.75A74,74,0,0,0,23,10.65q4.81-.64,9.28-1.57t8.42-2l7.16-2Q51,4.1,53.06,3.55A14.63,14.63,0,0,1,56.26,3h.11A4.47,4.47,0,0,1,59,4.07Q60.41,5.19,61.61,8.79ZM10.52,21a11.18,11.18,0,0,0,1,5.07q1,1.87,1.83,1.87,1.17,0,2.35,0t2.36.12l2.33.18q1.15.1,2.32.23A19.52,19.52,0,0,1,21.9,25a31.4,31.4,0,0,1,0-8,19.53,19.53,0,0,1,.77-3.49l-2.32.22L18,13.92q-1.18.08-2.36.11l-2.35,0q-.87,0-1.83,1.89A11.19,11.19,0,0,0,10.52,21ZM29.87,49.57,22.08,31.26l-1.4-.15L19.29,31l4.42,17.55a2.38,2.38,0,0,0,2.12,1.65h3.64a.85.85,0,0,0,.34-.05l.15-.08s0-.07,0-.16A1.13,1.13,0,0,0,29.87,49.57ZM25.77,29q3.34.49,6.48,1.15t6.06,1.4q2.92.73,5.53,1.48l4.84,1.4,1.7.49,1.56.46q-.22-.46-.42-1t-.39-1.11a21.87,21.87,0,0,1-.75-2.65q-.31-1.42-.53-3t-.33-3.21q-.11-1.67-.11-3.4t.11-3.38q.11-1.67.33-3.21t.53-3a21.87,21.87,0,0,1,.75-2.65q.19-.6.39-1.11t.42-1l-1.56.46-1.7.49-4.84,1.4q-2.62.75-5.53,1.48t-6.06,1.4q-3.15.67-6.48,1.15a15.82,15.82,0,0,0-1,3.51A25.36,25.36,0,0,0,24.41,21a25.66,25.66,0,0,0,.37,4.41A15.8,15.8,0,0,0,25.77,29ZM52.19,21q0,1.09.05,2.13t.14,2a2.51,2.51,0,0,0,1.83-1.33A5.21,5.21,0,0,0,55,21a5.14,5.14,0,0,0-.77-2.84,2.52,2.52,0,0,0-1.83-1.32q-.08,1-.14,2T52.19,21ZM59,32.37q.38-1.14.68-2.44t.49-2.75q.19-1.45.3-3T60.55,21q0-1.6-.11-3.16t-.3-3q-.19-1.44-.49-2.74T59,9.66a8.8,8.8,0,0,0-1.52-3.13q-.76-.8-1.09-.8t-1.09.8a8.8,8.8,0,0,0-1.52,3.13q-.33,1-.6,2.1t-.46,2.35a4.6,4.6,0,0,1,1.94.66,5.93,5.93,0,0,1,1.61,1.48,6.82,6.82,0,0,1,1.11,2.18,8.89,8.89,0,0,1,0,5.14,7.18,7.18,0,0,1-1.11,2.2,5.92,5.92,0,0,1-1.61,1.48,4.59,4.59,0,0,1-1.94.66q.19,1.22.46,2.35t.6,2.1a8.8,8.8,0,0,0,1.52,3.13q.76.8,1.09.8t1.09-.8A8.8,8.8,0,0,0,59,32.37Z"/></g></svg>