<svg xmlns="http://www.w3.org/2000/svg" viewBox="0 0 70 50"><defs><style>.cls-1{fill:#2bace2;}</style></defs><title>People</title><g id="Layer_3" data-name="Layer 3"><path class="cls-1" d="M8.83,48.61a4.56,4.56,0,0,1-3.35-1.38A4.56,4.56,0,0,1,4.1,43.88q0-.09.28-1.84a8.9,8.9,0,0,1,1.81-3.81,10.93,10.93,0,0,1,2.1-2.13A13.39,13.39,0,0,1,11,34.49a17.22,17.22,0,0,1,4-1.2,27.27,27.27,0,0,1,4.8-.4h.84c.28,0,.55,0,.81,0a1.47,1.47,0,0,1,1.07.52,1.55,1.55,0,0,1,.4,1.14,1.49,1.49,0,0,1-.51,1.07,1.54,1.54,0,0,1-1.15.4l-.72,0-.75,0a17.31,17.31,0,0,0-7.14,1.18,10.9,10.9,0,0,0-3.74,2.61A6,6,0,0,0,7.49,42.5q-.23,1.26-.26,1.38A1.65,1.65,0,0,0,7.71,45a1.49,1.49,0,0,0,1.12.46h9.42A1.57,1.57,0,0,1,19.82,47a1.54,1.54,0,0,1-.46,1.14,1.51,1.51,0,0,1-1.11.46ZM16.15,29a9.55,9.55,0,0,1-5-5,9.5,9.5,0,0,1,0-7.34,9.55,9.55,0,0,1,5-5,9.5,9.5,0,0,1,7.34,0,9.55,9.55,0,0,1,5,5,9.5,9.5,0,0,1,0,7.34,9.55,9.55,0,0,1-5,5,9.5,9.5,0,0,1-7.34,0ZM17.38,14.5A6.29,6.29,0,0,0,14,17.87a6.31,6.31,0,0,0,0,4.88,6.29,6.29,0,0,0,3.36,3.36,6.31,6.31,0,0,0,4.88,0,6.29,6.29,0,0,0,3.36-3.36,6.31,6.31,0,0,0,0-4.88,6.29,6.29,0,0,0-3.36-3.36,6.31,6.31,0,0,0-4.88,0Zm10.3,34.1A4.72,4.72,0,0,1,23,43.88q0-.12.38-2.38a11,11,0,0,1,2.53-4.9,14.3,14.3,0,0,1,2.92-2.73,19.06,19.06,0,0,1,3.78-2.06,22.1,22.1,0,0,1,2.67-.91q1.41-.38,3-.64t3.25-.4q1.7-.14,3.51-.14t3.53.14q1.69.14,3.24.4t3,.64a22.1,22.1,0,0,1,2.67.91,18.31,18.31,0,0,1,3.79,2.06,14.52,14.52,0,0,1,2.9,2.73,10.72,10.72,0,0,1,2.55,4.9q.37,2.26.37,2.38a4.72,4.72,0,0,1-4.73,4.73ZM26.57,45a1.51,1.51,0,0,0,1.11.46H62.24A1.49,1.49,0,0,0,63.36,45a1.65,1.65,0,0,0,.48-1.11s-.11-.63-.34-1.77a8.46,8.46,0,0,0-2-3.67A12.05,12.05,0,0,0,58.71,36,17.32,17.32,0,0,0,55,34.3a25.37,25.37,0,0,0-4.6-1.06,42,42,0,0,0-10.87,0,25,25,0,0,0-4.59,1.06A17.81,17.81,0,0,0,31.22,36a11.37,11.37,0,0,0-2.78,2.41,8.2,8.2,0,0,0-2,3.67q-.32,1.7-.32,1.77A1.51,1.51,0,0,0,26.57,45ZM40.08,25.6a12.79,12.79,0,0,1-4-2.7,12.62,12.62,0,0,1-2.69-4,12.28,12.28,0,0,1-1-4.9,12.32,12.32,0,0,1,1-4.88,12.46,12.46,0,0,1,6.69-6.69,12.65,12.65,0,0,1,9.78,0,12.63,12.63,0,0,1,4,2.69,12.81,12.81,0,0,1,2.7,4,12.13,12.13,0,0,1,1,4.88,12.1,12.1,0,0,1-1,4.9,12.74,12.74,0,0,1-6.69,6.69,12.48,12.48,0,0,1-9.78,0ZM41.31,5.33a9.47,9.47,0,0,0-5,5,9.5,9.5,0,0,0,0,7.34,9.32,9.32,0,0,0,2,3,9.64,9.64,0,0,0,3,2,9.5,9.5,0,0,0,7.34,0,9.36,9.36,0,0,0,5-5,9.5,9.5,0,0,0,0-7.34,9.63,9.63,0,0,0-2-3A9.33,9.33,0,0,0,45,4.59,9.17,9.17,0,0,0,41.31,5.33Z"/></g></svg>