<svg xmlns="http://www.w3.org/2000/svg" viewBox="0 0 70 50"><defs><style>.cls-1{fill:#2fabe2;}</style></defs><title>Pointer</title><g id="Layer_3" data-name="Layer 3"><path class="cls-1" d="M17.36,36.2a3.41,3.41,0,0,1-3.42-3.4V5.52a3.3,3.3,0,0,1,1-2.42,3.29,3.29,0,0,1,2.42-1h31.8a3.3,3.3,0,0,1,2.42,1,3.3,3.3,0,0,1,1,2.42V21.44a1.14,1.14,0,0,1-1.13,1.13,1.12,1.12,0,0,1-.82-.33,1.09,1.09,0,0,1-.33-.8V5.52a1.14,1.14,0,0,0-1.13-1.13H17.36a1.12,1.12,0,0,0-.82.33,1.09,1.09,0,0,0-.33.8V32.8a1.09,1.09,0,0,0,.33.8,1.12,1.12,0,0,0,.82.33h9.08a1.13,1.13,0,0,1,0,2.26Zm25.5,11.17a1.09,1.09,0,0,1-.42-.52l-3.86-9.63-6.72,7.7a1.12,1.12,0,0,1-.59.34,1.24,1.24,0,0,1-.68,0,1.15,1.15,0,0,1-.53-.42,1.1,1.1,0,0,1-.2-.64V10.07A1.16,1.16,0,0,1,30,9.45,1,1,0,0,1,30.52,9,1.13,1.13,0,0,1,31.17,9a1.11,1.11,0,0,1,.58.28L56.76,32a1.12,1.12,0,0,1,.34.58,1.09,1.09,0,0,1-.06.67,1.16,1.16,0,0,1-.42.53,1.11,1.11,0,0,1-.64.2H46.3l3.93,9.81a1,1,0,0,1,0,.85,1.12,1.12,0,0,1-.63.61l-5.68,2.29a.58.58,0,0,1-.2.06h-.22A1.12,1.12,0,0,1,42.86,47.37ZM39,33.93l.09,0a1.08,1.08,0,0,1,.52.23,1.15,1.15,0,0,1,.34.45L44.13,45l3.57-1.44-4.13-10.3a1.06,1.06,0,0,1-.08-.54,1.23,1.23,0,0,1,.19-.52,1.18,1.18,0,0,1,.93-.49H53l-20.93-19v28.5l6-6.84a1.08,1.08,0,0,1,.38-.28,1.12,1.12,0,0,1,.47-.1Z"/></g></svg>