<svg xmlns="http://www.w3.org/2000/svg" viewBox="0 0 70 50"><defs><style>.cls-1{fill:#2aaae2;}</style></defs><title>Share</title><g id="Layer_3" data-name="Layer 3"><path class="cls-1" d="M16.3,47.76a2.22,2.22,0,0,1-1.83-1,4.25,4.25,0,0,1-.48-.81l-.38-.84-.29-.67c-2.4-5.4-3.58-9.6-3.58-12.84A26.25,26.25,0,0,1,11.28,22c3.16-7.86,11.61-11.84,25.13-11.84h4.81V4.48a3,3,0,0,1,.9-2.16,3.07,3.07,0,0,1,4.31,0l14,14a3,3,0,0,1,0,4.31l-14,14a3.07,3.07,0,0,1-4.31,0,3,3,0,0,1-.9-2.16V26.77H36.41c-1.74,0-3.32.05-4.7.16a33.46,33.46,0,0,0-4,.57,14.44,14.44,0,0,0-3.33,1.06,11.53,11.53,0,0,0-2.59,1.71,8.25,8.25,0,0,0-1.89,2.38,13.59,13.59,0,0,0-1.2,3.45,22,22,0,0,0-.45,4.67c0,1,0,2.06.13,3.26v.1c0,.08,0,.24.06.46a6.66,6.66,0,0,1,.08.91A2.34,2.34,0,0,1,17.94,47,2.11,2.11,0,0,1,16.3,47.76Zm20.11-35c-12.34,0-20,3.43-22.69,10.19a23.7,23.7,0,0,0-1.35,8.61c0,2.8,1.11,6.72,3.3,11.66-.05-.89-.08-1.72-.08-2.48a24.57,24.57,0,0,1,.51-5.23,16.17,16.17,0,0,1,1.45-4.12A10.86,10.86,0,0,1,20,28.28a14.2,14.2,0,0,1,3.18-2.09,17,17,0,0,1,3.94-1.26,36.1,36.1,0,0,1,4.37-.61c1.44-.11,3.09-.17,4.9-.17h7.43v8.31a.37.37,0,0,0,.13.3c.23.23.38.23.6,0l14-14a.41.41,0,0,0,0-.6l-14-14c-.23-.23-.38-.22-.61,0a.37.37,0,0,0-.13.3v8.31Z"/></g></svg>