<svg xmlns="http://www.w3.org/2000/svg" viewBox="0 0 70 50"><defs><style>.cls-1{fill:#ec2227;}</style></defs><title>Unlink</title><g id="Layer_3" data-name="Layer 3"><path class="cls-1" d="M12.7,20.6a1.4,1.4,0,0,1-1-.42,1.41,1.41,0,0,1,0-2,1.4,1.4,0,0,1,1-.42h8.55a1.42,1.42,0,0,1,0,2.84Zm5,27.72A10.39,10.39,0,0,1,12,42.55a10.64,10.64,0,0,1-.77-3.94,10.74,10.74,0,0,1,.77-4,10.1,10.1,0,0,1,2.3-3.48l8.74-8.74a1.41,1.41,0,0,1,2,0,1.45,1.45,0,0,1,0,2l-8.74,8.74a7.37,7.37,0,0,0-1.67,2.52,7.73,7.73,0,0,0,0,5.76A7.36,7.36,0,0,0,16.35,44a7.69,7.69,0,0,0,2.48,1.67,7.47,7.47,0,0,0,2.92.58A7.66,7.66,0,0,0,27.18,44l8.74-8.74a1.42,1.42,0,1,1,2,2L29.18,46a10.33,10.33,0,0,1-3.4,2.27,10.6,10.6,0,0,1-8,0Zm5.81-33.52a1.12,1.12,0,0,1-.46-.32L17.38,8.77a1.41,1.41,0,0,1,0-2,1.45,1.45,0,0,1,2,0l5.68,5.71a1.41,1.41,0,0,1,0,2,1.12,1.12,0,0,1-.46.32,1.56,1.56,0,0,1-1.09,0Zm5.25-3.16a1.37,1.37,0,0,1-.42-1V2.06a1.37,1.37,0,0,1,.42-1,1.41,1.41,0,0,1,2,0,1.37,1.37,0,0,1,.42,1v8.58a1.42,1.42,0,0,1-2.42,1Zm17.58,16a1.34,1.34,0,0,1-.49-.32,1.41,1.41,0,0,1,0-2l8.74-8.77a7.34,7.34,0,0,0,1.67-2.46,7.57,7.57,0,0,0,.58-2.94,7.48,7.48,0,0,0-.58-2.92,7.69,7.69,0,0,0-1.67-2.48,7.39,7.39,0,0,0-2.52-1.67,7.73,7.73,0,0,0-5.76,0,7.39,7.39,0,0,0-2.52,1.67l-8.74,8.74a1.45,1.45,0,0,1-2,0,1.41,1.41,0,0,1,0-2l8.77-8.74a10.34,10.34,0,0,1,3.47-2.31,10.42,10.42,0,0,1,7.91,0,10.48,10.48,0,0,1,6.53,9.72,10.37,10.37,0,0,1-.79,4,10.71,10.71,0,0,1-2.27,3.41l-8.74,8.74a1.34,1.34,0,0,1-.49.32,1.55,1.55,0,0,1-.54.1A1.48,1.48,0,0,1,46.37,27.63Zm-6.2,21.06a1.37,1.37,0,0,1-.42-1V39.14a1.43,1.43,0,0,1,1.45-1.45,1.37,1.37,0,0,1,1,.42,1.4,1.4,0,0,1,.42,1v8.55a1.43,1.43,0,0,1-1.42,1.42A1.4,1.4,0,0,1,40.18,48.69Zm11.87-5.39a1.12,1.12,0,0,1-.46-.32l-5.71-5.71a1.41,1.41,0,0,1,0-2,1.45,1.45,0,0,1,2,0L53.6,41a1.41,1.41,0,0,1,0,2,1.12,1.12,0,0,1-.46.32,1.56,1.56,0,0,1-1.09,0ZM49.76,32a1.37,1.37,0,0,1-1-.42,1.4,1.4,0,0,1-.42-1,1.43,1.43,0,0,1,1.42-1.42H58.3a1.43,1.43,0,0,1,1.42,1.42,1.4,1.4,0,0,1-.42,1,1.37,1.37,0,0,1-1,.42Z"/></g></svg>