<svg id="MakerShare-Logo-Color" xmlns="http://www.w3.org/2000/svg" viewBox="0 0 288 221"><defs><style>.cls-1{fill:#fff;}.cls-2{fill:#ed1c24;}.cls-3{fill:#00aeef;}</style></defs><title>Maker Share-Logo-Clr</title><rect class="cls-1" x="80.54" y="126.05" width="185.72" height="70.18"/><rect class="cls-1" x="22.4" y="25.83" width="194.32" height="70.18"/><path class="cls-2" d="M54.72,81.61,46.24,51H46V81.61h-9.2V40.2H52.29l7.3,27.67h.2l7-27.67H81.93v41.4h-10V51h-.26L63.26,81.61Z"/><path class="cls-2" d="M113,73.66c0,1.51.66,2.17,1.84,2.17a5.42,5.42,0,0,0,2.43-.53v5.06a9.86,9.86,0,0,1-6.18,1.91,6.64,6.64,0,0,1-6.9-5.13c-1.64,3.35-5.26,5.13-9.79,5.13-5.85,0-9.53-3-9.53-8,0-5.59,4.21-8,10.65-9.2l8.15-1.45v-.53c0-2.76-1.38-4.4-4.27-4.4s-4.14,1.71-4.67,4.14l-8.81-.66c1-6.24,5.65-10.58,14-10.58C107.55,51.64,113,55.06,113,63Zm-9.33-5-4.8,1c-3,.59-4.8,1.31-4.8,3.61C94.07,75,95.39,76,97.42,76c3.48,0,6.24-2.63,6.24-6.77Z"/><path class="cls-2" d="M128.61,81.61h-9.46V40.2h9.46v23l11-10.78h11.24L138.6,64l12.75,17.61H140.64L131.5,69.25l-2.89,2.83Z"/><path class="cls-2" d="M178,72c-1.51,6.64-6.7,10.38-14.33,10.38-9.27,0-15.84-5.65-15.84-14.92s6.7-15.84,15.64-15.84c9.66,0,14.72,6.64,14.72,14.59v2.89h-21c.26,3.88,3.15,6.11,6.84,6.11,3.29,0,5.32-1.25,6.37-3.94Zm-8.94-8c-.2-2.89-2-5.52-5.65-5.52-3.81,0-5.59,2.43-6.11,5.52Z"/><path class="cls-2" d="M201.76,61.69a9.38,9.38,0,0,0-5-1.18c-3.94,0-6.57,2.23-6.57,7.3v13.8h-9.46V52.43h9.46v5.32a8.72,8.72,0,0,1,8.08-6.11,6.68,6.68,0,0,1,4.07,1.18Z"/><path class="cls-2" d="M104.05,166c.39,5.72,4.67,8,9.79,8,4.4,0,7.16-1.71,7.16-4.47s-2.43-3.42-6-4.14L107.2,164c-6.57-1.25-11.24-4.93-11.24-12,0-8.15,6.38-13.21,16.43-13.21,11.24,0,17.35,5.59,17.55,14.79l-9.2.26c-.26-4.86-3.61-7.23-8.41-7.23-4.21,0-6.57,1.71-6.57,4.53,0,2.37,1.84,3.22,4.86,3.81l7.76,1.38c8.48,1.51,12.36,5.72,12.36,12.49,0,8.54-7.43,12.95-16.89,12.95-11,0-18.93-5.46-18.93-15.51Z"/><path class="cls-2" d="M143.26,181.06h-9.46v-41.4h9.46v16.76c1.58-3.22,5.13-5.32,9.53-5.32,7.89,0,10.52,5.45,10.52,11.7v18.27h-9.46v-16c0-4.21-1.38-6.51-4.86-6.51-3.81,0-5.72,3-5.72,7.62Z"/><path class="cls-2" d="M193.44,173.1c0,1.51.66,2.17,1.84,2.17a5.42,5.42,0,0,0,2.43-.53v5.06a9.86,9.86,0,0,1-6.18,1.91,6.65,6.65,0,0,1-6.9-5.13c-1.64,3.35-5.26,5.13-9.79,5.13-5.85,0-9.53-3-9.53-8,0-5.59,4.21-8,10.65-9.2l8.15-1.45v-.53c0-2.76-1.38-4.4-4.27-4.4s-4.14,1.71-4.67,4.14l-8.81-.66c1-6.24,5.65-10.58,14-10.58,7.62,0,13.08,3.42,13.08,11.37Zm-9.33-5-4.8,1c-3,.59-4.8,1.31-4.8,3.61,0,1.71,1.31,2.76,3.35,2.76,3.48,0,6.24-2.63,6.24-6.77Z"/><path class="cls-2" d="M220.62,161.14a9.39,9.39,0,0,0-5-1.18c-3.94,0-6.57,2.23-6.57,7.3v13.8h-9.46V151.88h9.46v5.32a8.72,8.72,0,0,1,8.08-6.11,6.68,6.68,0,0,1,4.07,1.18Z"/><path class="cls-2" d="M251.69,171.46c-1.51,6.64-6.7,10.38-14.33,10.38-9.27,0-15.84-5.65-15.84-14.92s6.7-15.84,15.64-15.84c9.66,0,14.72,6.64,14.72,14.59v2.89h-21c.26,3.88,3.15,6.11,6.84,6.11,3.29,0,5.32-1.25,6.37-3.94Zm-8.94-8c-.2-2.89-2-5.52-5.65-5.52-3.81,0-5.59,2.43-6.11,5.52Z"/><path class="cls-3" d="M222.46,18.76H15.33V100.5L75,203.3H273.33V121.69ZM73.47,119v67.65L25,103.08H223.8V37.43L264.11,119ZM216.73,25.83V96H22.4V25.83ZM80.54,196.23V126.05H266.26v70.18Z"/></svg>